<?xml version="1.0" encoding="utf-8"?>
<!-- Generator: Adobe Illustrator 24.2.0, SVG Export Plug-In . SVG Version: 6.00 Build 0)  -->
<svg version="1.1" id="_-s-组_40" xmlns="http://www.w3.org/2000/svg" xmlns:xlink="http://www.w3.org/1999/xlink" x="0px" y="0px"
	 viewBox="0 0 703 414.7" style="enable-background:new 0 0 703 414.7;" xml:space="preserve">
<style type="text/css">
	.st0{fill:none;stroke:#00FFFF;stroke-width:2;}
	.st1{fill-rule:evenodd;clip-rule:evenodd;fill:#00FFFF;}
	.st2{fill:none;stroke:#FF9600;stroke-width:2;}
	.st3{fill-rule:evenodd;clip-rule:evenodd;fill:#FF9600;}
	.st4{opacity:0.42;fill:none;stroke:#00FFFF;stroke-width:2;enable-background:new    ;}
	.st5{opacity:0.42;fill-rule:evenodd;clip-rule:evenodd;fill:#00FFFF;enable-background:new    ;}
	.st6{opacity:0.52;fill-rule:evenodd;clip-rule:evenodd;fill:url(#形状_14_1_);enable-background:new    ;}
	.st7{opacity:0.52;fill-rule:evenodd;clip-rule:evenodd;fill:url(#形状_14_拷贝_1_);enable-background:new    ;}
	.st8{opacity:0.46;fill-rule:evenodd;clip-rule:evenodd;fill:url(#矩形_9_拷贝_2_1_);enable-background:new    ;}
	.st9{opacity:0.34;fill-rule:evenodd;clip-rule:evenodd;fill:url(#矩形_10_1_);enable-background:new    ;}
	.st10{opacity:0.34;fill-rule:evenodd;clip-rule:evenodd;fill:url(#矩形_10_拷贝_2_1_);enable-background:new    ;}
	.st11{opacity:0.34;fill-rule:evenodd;clip-rule:evenodd;fill:url(#矩形_10_拷贝_3_1_);enable-background:new    ;}
	.st12{opacity:0.34;fill-rule:evenodd;clip-rule:evenodd;fill:url(#矩形_10_拷贝_4_1_);enable-background:new    ;}
	.st13{opacity:0.34;fill-rule:evenodd;clip-rule:evenodd;fill:url(#矩形_10_拷贝_1_);enable-background:new    ;}
	.st14{fill-rule:evenodd;clip-rule:evenodd;fill:#0013B5;}
	.st15{fill-rule:evenodd;clip-rule:evenodd;fill:#4B84F3;}
	.st16{fill-rule:evenodd;clip-rule:evenodd;fill:url(#形状_4_1_);}
	.st17{opacity:0.95;enable-background:new    ;}
	.st18{fill-rule:evenodd;clip-rule:evenodd;fill:#E3F7FF;}
	.st19{fill:#00FFFF;}
	.st20{fill:none;stroke:#00FFFC;stroke-width:4;stroke-linecap:round;stroke-dasharray:1.000000e-03,8;}
	.st21{fill-rule:evenodd;clip-rule:evenodd;fill:url(#矩形_6_拷贝_2_1_);}
	.st22{fill-rule:evenodd;clip-rule:evenodd;fill:url(#矩形_6_拷贝_2-2_1_);}
	.st23{fill-rule:evenodd;clip-rule:evenodd;fill:url(#矩形_6_拷贝_3_1_);stroke:#76B1FF;stroke-width:2;}
	.st24{fill:#00FFFC;}
	.st25{opacity:0.3;fill:url(#矩形_6_拷贝_6_1_);enable-background:new    ;}
	.st26{opacity:0.3;fill:url(#矩形_6_拷贝_6-2_1_);enable-background:new    ;}
	.st27{fill:#A6FFFE;}
	.st28{fill:#EAF1FF;}
	.st29{opacity:0.3;fill:url(#矩形_6_拷贝_6-3_1_);enable-background:new    ;}
	.st30{opacity:0.3;fill:url(#矩形_6_拷贝_6-4_1_);enable-background:new    ;}
	.st31{opacity:0.3;fill:url(#矩形_6_拷贝_6-5_1_);enable-background:new    ;}
	.st32{opacity:0.3;fill:url(#矩形_6_拷贝_6-6_1_);enable-background:new    ;}
	.st33{fill-rule:evenodd;clip-rule:evenodd;fill:url(#矩形_6_拷贝_2-3_1_);}
	.st34{fill-rule:evenodd;clip-rule:evenodd;fill:url(#矩形_6_拷贝_2-4_2_);}
	.st35{fill-rule:evenodd;clip-rule:evenodd;fill:url(#矩形_6_拷贝_2-5_1_);}
	.st36{fill-rule:evenodd;clip-rule:evenodd;fill:url(#矩形_6_拷贝_2-6_1_);}
	.st37{fill-rule:evenodd;clip-rule:evenodd;fill:url(#矩形_6_拷贝_3-2_1_);stroke:#76B1FF;stroke-width:2;}
	.st38{fill:#4B84F3;}
	.st39{opacity:0.4;fill:#00FF00;enable-background:new    ;}
	.st40{fill:#00FF00;}
	.st41{fill:#1E33E2;}
	.st42{enable-background:new    ;}
	.st43{fill:#FF9600;}
</style>
<path id="形状_5_拷贝_2" class="st0" d="M410.7,338.1l8,3.4l-1.1,6.7l12.1,5.5l29.7,0.6l12.2,5.3l-2.4,20l74,31.4"/>
<path id="形状_5_拷贝_2-2" class="st0" d="M425.4,332.7l11.4,4l-1.3,7.5l6.3,2l30.6-1.1l13,4.9l-3.2,17.6l58.7,23.6"/>
<path id="形状_6_拷贝" class="st0" d="M443.4,325.6l4.1,2.1l0.1,6l12.5,5.5l17.2-0.7l19.5,7.7l-2,10.8l15.5,5.7l18.1-0.5
	l18.3,6.6"/>
<path id="形状_7_拷贝" class="st0" d="M462.9,319l4.2,2.1l-2.7,5.8l10.9,4.2l8.5-3.2l20.7,9.5l1.2,5.3l21.9,8.4l0,3.8l4.4,2.2
	l6.6-1.8l41.4,13.7"/>
<path id="形状_8_拷贝" class="st0" d="M477.8,312.2l12.1,6.3l6.1-3.2l9.7,6.3l-1.2,5.3l8.5,3.7l7.3-2.6l15.8,6.3l1.2,7.4
	l21.6,10"/>
<path id="形状_9_拷贝" class="st0" d="M499.6,301.6l9.7,5.3l-1.2,8.4l8.5,4.2l9.7-4.2l24.3,11.6l-0.9,7.2l69,27.5"/>
<path id="形状_10_拷贝" class="st0" d="M508.5,295.9l16.9,6.1l-1.4,7l19.5,7.4l12.2-4.2l20.7,8.4l-2.4,11.6l95.3,35.8"/>
<path id="椭圆_9_拷贝_10" class="st1" d="M546.6,410.1c-3.1,0-5.7,1-6,2.3s2,2.3,5.1,2.3s5.8-1,6-2.3S549.7,410.1,546.6,410.1z"
	/>
<path id="椭圆_9_拷贝_10-2" class="st1" d="M543.6,390.4c-3.1,0-5.8,1.1-6,2.4s2,2.3,5.1,2.3s5.8-1.1,6.1-2.4
	S546.7,390.3,543.6,390.4z"/>
<path id="椭圆_9_拷贝_10-3" class="st1" d="M549,368.7c-3.1,0.1-5.8,1.2-6.1,2.5s2,2.3,5.1,2.2s5.8-1.2,6.1-2.5
	S552.1,368.6,549,368.7z"/>
<path id="椭圆_9_拷贝_10-4" class="st1" d="M578.4,366.7c-3.2,0.1-6.1,1.2-6.3,2.5s2.1,2.4,5.3,2.3s6.1-1.2,6.4-2.5
	S581.7,366.6,578.4,366.7z"/>
<path id="椭圆_9_拷贝_10-5" class="st1" d="M591.2,372.2c-2,0-3.8,0.8-4,1.6s1.3,1.5,3.3,1.5s3.8-0.8,4-1.6
	S593.2,372.1,591.2,372.2z"/>
<path id="椭圆_9_拷贝_10-6" class="st1" d="M632.5,366.9c-2,0-3.8,0.8-4,1.6s1.3,1.5,3.3,1.5s3.8-0.8,4-1.6
	S634.6,366.9,632.5,366.9z"/>
<path id="椭圆_9_拷贝_10-7" class="st1" d="M650.1,374.3c-1.7,0-3.2,0.5-3.3,1.1s1.1,1,2.8,1s3.2-0.5,3.3-1.1
	S651.8,374.3,650.1,374.3z"/>
<path id="椭圆_9_拷贝_10-8" class="st1" d="M558.9,348.1c-3.1,0.1-5.9,1.2-6.1,2.6s2,2.3,5.2,2.2s5.9-1.2,6.2-2.6
	S562.1,348,558.9,348.1z"/>
<path id="椭圆_9_拷贝_10-9" class="st1" d="M617,358.4c-3.3,0.1-6.2,1.3-6.5,2.6s2.1,2.4,5.4,2.3s6.2-1.3,6.5-2.6
	S620.4,358.3,617,358.4z"/>
<path id="椭圆_9_拷贝_10-10" class="st1" d="M670.5,365.4c-3.5,0.1-6.6,1.3-6.9,2.6s2.2,2.4,5.7,2.4s6.6-1.2,6.9-2.6
	S674,365.4,670.5,365.4z"/>
<path id="形状_5_拷贝_2-3" class="st0" d="M289.1,332.1l-8,3.4l1.1,6.7l-12.1,5.5l-29.7,0.6l-12.2,5.3l2.4,20l-74,31.4"/>
<path id="形状_5_拷贝_2-4" class="st0" d="M274.4,326.7l-11.4,4l1.3,7.5l-6.3,2l-30.6-1.1l-13,4.9l3.2,17.6L159,385.3"/>
<path id="形状_6_拷贝-2" class="st0" d="M256.4,319.6l-4.1,2.1l-0.1,6l-12.5,5.5l-17.2-0.7l-19.5,7.7l2,10.8l-15.5,5.7
	l-18.1-0.5l-18.3,6.6"/>
<path id="形状_7_拷贝-2" class="st0" d="M236.9,313.1l-4.2,2.1l2.7,5.8l-11,4.2l-8.5-3.2l-20.7,9.5l-1.2,5.3l-21.9,8.4l0,3.8
	l-4.4,2.2l-6.6-1.8L119.8,363"/>
<path id="形状_8_拷贝-2" class="st0" d="M222,306.2l-12.1,6.3l-6.1-3.2l-9.7,6.3l1.2,5.3l-8.5,3.7l-7.3-2.6l-15.8,6.3l-1.2,7.4
	l-21.6,10"/>
<path id="形状_9_拷贝-2" class="st2" d="M200.1,295.7l-9.7,5.3l1.2,8.4l-8.5,4.2l-9.7-4.2L149,320.9l0.9,7.2l-69,27.5"/>
<path id="形状_10_拷贝-2" class="st0" d="M191.3,290l-16.9,6.1l1.4,6.9l-19.5,7.4l-12.2-4.2l-20.7,8.4l2.4,11.6l-95.4,35.8"/>
<path id="椭圆_9_拷贝_10-11" class="st1" d="M153.2,403.3c3.1,0,5.7,1,6,2.3s-2,2.3-5.1,2.3s-5.8-1-6-2.3
	S150.1,403.3,153.2,403.3z"/>
<path id="椭圆_9_拷贝_10-12" class="st1" d="M155.4,382.9c3.1,0,5.8,1.1,6,2.4s-2,2.3-5.1,2.3s-5.8-1.1-6.1-2.4
	S152.3,382.9,155.4,382.9z"/>
<path id="椭圆_9_拷贝_10-13" class="st1" d="M148.5,361.3c3.1,0.1,5.8,1.2,6.1,2.5s-2,2.3-5.1,2.2s-5.8-1.2-6.1-2.5
	S145.4,361.2,148.5,361.3z"/>
<path id="椭圆_9_拷贝_10-14" class="st1" d="M122.8,358.5c3.2,0.1,6.1,1.2,6.3,2.5s-2.1,2.4-5.3,2.3s-6.1-1.2-6.4-2.5
	S119.6,358.5,122.8,358.5z"/>
<path id="椭圆_9_拷贝_10-15" class="st1" d="M108.6,366.2c2,0,3.8,0.8,4,1.6s-1.3,1.5-3.3,1.5s-3.8-0.8-4-1.6
	S106.5,366.1,108.6,366.2z"/>
<path id="椭圆_9_拷贝_10-16" class="st3" d="M67.2,360.9c2,0,3.8,0.8,4,1.6s-1.3,1.5-3.3,1.5s-3.8-0.8-4-1.6
	S65.2,360.9,67.2,360.9z"/>
<path id="椭圆_9_拷贝_10-17" class="st3" d="M49.6,368.3c1.7,0,3.2,0.5,3.3,1.1s-1.1,1-2.8,1s-3.2-0.5-3.3-1.1
	S47.9,368.2,49.6,368.3z"/>
<path id="椭圆_9_拷贝_11" class="st1" d="M43.5,394.7c1.7,0,3.2,0.5,3.3,1.1s-1.1,1-2.8,1s-3.2-0.5-3.3-1.1
	S41.8,394.6,43.5,394.7z"/>
<path id="椭圆_9_拷贝_12" class="st1" d="M125.2,379c1.7,0,3.2,0.5,3.3,1.1s-1.1,1-2.8,1s-3.2-0.5-3.3-1.1
	S123.5,378.9,125.2,379z"/>
<path id="椭圆_9_拷贝_13" class="st1" d="M622.2,384c1.7,0,3.2,0.5,3.3,1.1s-1.1,1-2.8,1s-3.2-0.5-3.3-1.1
	S620.5,383.9,622.2,384z"/>
<path id="椭圆_9_拷贝_14" class="st1" d="M561.7,376.1c1.7,0,3.2,0.5,3.3,1.1s-1.1,1-2.8,1s-3.2-0.5-3.3-1.1
	S560,376.1,561.7,376.1z"/>
<path id="椭圆_9_拷贝_10-18" class="st1" d="M140.8,342.1c3.1,0.1,5.9,1.2,6.1,2.6s-2.1,2.3-5.2,2.2s-5.9-1.2-6.2-2.6
	S137.7,342,140.8,342.1z"/>
<path id="椭圆_9_拷贝_10-19" class="st3" d="M82.7,352.4c3.3,0.1,6.2,1.3,6.5,2.6s-2.1,2.4-5.4,2.3s-6.2-1.3-6.5-2.6
	S79.4,352.3,82.7,352.4z"/>
<path id="椭圆_9_拷贝_10-20" class="st1" d="M29.2,359.4c3.5,0.1,6.6,1.3,6.9,2.6s-2.2,2.4-5.7,2.4s-6.6-1.2-6.9-2.6
	S25.7,359.3,29.2,359.4z"/>
<path id="形状_5_拷贝_2-5" class="st4" d="M265.5,195.2l-8-3.7l1.1-7.3l-12.1-6l-29.7-0.6l-12.2-5.7l2.4-21.8L133,116"/>
<path id="形状_5_拷贝_2-6" class="st4" d="M250.9,201.1l-11.4-4.4l1.3-8.2l-6.3-2.2l-30.6,1.1l-13-5.3l3.2-19.1l-58.7-25.7"/>
<path id="形状_6_拷贝-3" class="st4" d="M232.9,208.9l-4.1-2.3l-0.1-6.5l-12.5-6l-17.2,0.7l-19.5-8.4l2-11.8l-15.5-6.2
	l-18.1,0.5l-18.3-7.2"/>
<path id="形状_7_拷贝-3" class="st4" d="M213.4,216l-4.2-2.3l2.7-6.3l-11-4.6l-8.5,3.4L171.7,196l-1.2-5.7l-21.9-9.2l0-4.1
	l-4.4-2.4l-6.6,1.9l-41.4-14.9"/>
<path id="形状_8_拷贝-3" class="st4" d="M198.5,223.5l-12.1-6.9l-6.1,3.4l-9.7-6.9l1.2-5.7l-8.5-4l-7.3,2.8l-15.8-6.9l-1.2-8
	l-21.6-10.9"/>
<path id="形状_9_拷贝-3" class="st4" d="M176.6,234.9l-9.7-5.7l1.2-9.2l-8.5-4.6l-9.7,4.6l-24.3-12.6l0.9-7.9l-69-30"/>
<path id="形状_10_拷贝-3" class="st4" d="M167.8,241.1l-16.9-6.6l1.4-7.6l-19.5-8l-12.2,4.6l-20.7-9.2l2.4-12.6l-95.3-39"/>
<path id="椭圆_9_拷贝_10-21" class="st5" d="M129.7,116.2c3.1,0,5.7-1.1,6-2.5s-2-2.5-5.1-2.5s-5.8,1.1-6,2.5
	S126.6,116.2,129.7,116.2z"/>
<path id="椭圆_9_拷贝_10-22" class="st5" d="M131.9,139.9c3.1,0,5.8-1.2,6-2.6s-2-2.5-5.1-2.5s-5.8,1.2-6.1,2.6
	S128.8,139.9,131.9,139.9z"/>
<path id="椭圆_9_拷贝_10-23" class="st5" d="M125,162c3.1-0.1,5.8-1.3,6.1-2.7s-2-2.5-5.1-2.4s-5.8,1.3-6.1,2.7
	S121.9,162.1,125,162z"/>
<path id="椭圆_9_拷贝_10-24" class="st5" d="M93.3,162.2c3.2-0.1,6.1-1.3,6.3-2.8s-2.1-2.6-5.3-2.5s-6.1,1.3-6.4,2.7
	S90,162.2,93.3,162.2z"/>
<path id="椭圆_9_拷贝_10-25" class="st5" d="M85.1,158.1c2,0,3.8-0.9,4-1.8s-1.3-1.7-3.3-1.6s-3.8,0.8-4,1.8
	S83,158.2,85.1,158.1z"/>
<path id="椭圆_9_拷贝_10-26" class="st5" d="M43.7,163.9c2,0,3.8-0.9,4-1.8s-1.3-1.7-3.3-1.6s-3.8,0.8-4,1.8
	S41.7,163.9,43.7,163.9z"/>
<path id="椭圆_9_拷贝_10-27" class="st5" d="M26.1,155.8c1.7,0,3.2-0.6,3.3-1.2s-1.1-1.1-2.8-1.1s-3.2,0.6-3.3,1.2
	S24.4,155.9,26.1,155.8z"/>
<path id="椭圆_9_拷贝_10-28" class="st5" d="M114.3,181.5c3.1-0.1,5.9-1.4,6.1-2.8s-2.1-2.5-5.2-2.4s-5.9,1.4-6.2,2.8
	S111.2,181.6,114.3,181.5z"/>
<path id="椭圆_9_拷贝_10-29" class="st5" d="M58.5,171.7c3.3-0.1,6.2-1.4,6.5-2.9s-2.1-2.6-5.4-2.5s-6.2,1.4-6.5,2.9
	S55.1,171.8,58.5,171.7z"/>
<path id="椭圆_9_拷贝_10-30" class="st5" d="M5.8,192.6c3.5-0.1,6.6-1.4,6.9-2.9s-2.2-2.7-5.7-2.6S0.3,188.5,0,190
	S2.3,192.7,5.8,192.6z"/>
<path id="形状_5_拷贝_2-7" class="st4" d="M437.1,199.4l8-3.7l-1.1-7.3l12.1-6l29.7-0.6l12.2-5.7l-2.4-21.8l74-34.1"/>
<path id="形状_5_拷贝_2-8" class="st4" d="M451.7,205.3l11.4-4.4l-1.3-8.2l6.3-2.2l30.6,1.1l13-5.3l-3.2-19.1l58.7-25.7"/>
<path id="形状_6_拷贝-4" class="st4" d="M469.8,213.1l4.1-2.3l0.1-6.5l12.5-6l17.2,0.7l19.5-8.4l-2-11.7l15.5-6.2l18.1,0.5
	l18.3-7.2"/>
<path id="形状_7_拷贝-4" class="st4" d="M489.3,220.2l4.2-2.3l-2.7-6.3l11-4.6l8.5,3.4l20.7-10.3l1.2-5.7l21.9-9.2l0-4.1
	l4.4-2.4l6.6,1.9l41.4-14.9"/>
<path id="形状_8_拷贝-4" class="st4" d="M504.2,227.7l12.1-6.9l6.1,3.4l9.7-6.9l-1.2-5.7l8.5-4l7.3,2.8l15.8-6.9l1.2-8
	l21.6-10.8"/>
<path id="形状_9_拷贝-4" class="st4" d="M526,239.1l9.7-5.7l-1.2-9.2l8.5-4.6l9.7,4.6l24.3-12.6l-0.9-7.9l69-29.9"/>
<path id="形状_10_拷贝-4" class="st4" d="M534.9,245.3l16.9-6.6l-1.4-7.6l19.5-8l12.2,4.6l20.7-9.2l-2.4-12.6l95.4-38.9"/>
<path id="椭圆_9_拷贝_10-31" class="st5" d="M573,121.9c-3.1,0-5.7-1.1-6-2.5s2-2.5,5.1-2.5s5.8,1.1,6,2.5
	S576.1,121.9,573,121.9z"/>
<path id="椭圆_9_拷贝_10-32" class="st5" d="M570.8,144.2c-3.1,0-5.8-1.2-6-2.6s2-2.5,5.1-2.5s5.8,1.2,6.1,2.6
	S573.9,144.2,570.8,144.2z"/>
<path id="椭圆_9_拷贝_10-33" class="st5" d="M577.7,167.7c-3.1-0.1-5.8-1.3-6.1-2.7s2-2.5,5.1-2.4s5.8,1.3,6.1,2.7
	S580.8,167.8,577.7,167.7z"/>
<path id="椭圆_9_拷贝_10-34" class="st5" d="M603.4,170.7c-3.2-0.1-6.1-1.3-6.3-2.7s2.1-2.6,5.3-2.5s6.1,1.3,6.4,2.7
	S606.6,170.8,603.4,170.7z"/>
<path id="椭圆_9_拷贝_10-35" class="st5" d="M617.6,162.4c-2,0-3.8-0.9-4-1.8s1.3-1.7,3.3-1.6s3.8,0.8,4,1.8
	S619.6,162.4,617.6,162.4z"/>
<path id="椭圆_9_拷贝_10-36" class="st5" d="M659,168.1c-2,0-3.8-0.9-4-1.8s1.3-1.7,3.3-1.6s3.8,0.8,4,1.8S661,168.2,659,168.1z
	"/>
<path id="椭圆_9_拷贝_10-37" class="st5" d="M676.6,160.1c-1.7,0-3.2-0.6-3.3-1.2s1.1-1.1,2.8-1.1s3.2,0.6,3.3,1.2
	S678.3,160.1,676.6,160.1z"/>
<path id="椭圆_9_拷贝_10-38" class="st5" d="M585.4,188.6c-3.1-0.1-5.9-1.4-6.1-2.8s2.1-2.5,5.2-2.4s5.9,1.4,6.2,2.8
	S588.5,188.7,585.4,188.6z"/>
<path id="椭圆_9_拷贝_10-39" class="st5" d="M643.5,177.4c-3.3-0.1-6.2-1.4-6.5-2.9s2.1-2.6,5.4-2.5s6.2,1.4,6.5,2.9
	S646.8,177.5,643.5,177.4z"/>
<path id="椭圆_9_拷贝_10-40" class="st5" d="M696.9,196.8c-3.5-0.1-6.6-1.4-6.9-2.9s2.2-2.7,5.7-2.6s6.6,1.4,6.9,2.9
	S700.4,196.9,696.9,196.8z"/>
<linearGradient id="形状_14_1_" gradientUnits="userSpaceOnUse" x1="211.4127" y1="192.8314" x2="184.6207" y2="286.2684" gradientTransform="matrix(1 0 0 -1 0 421.4835)">
	<stop  offset="0" style="stop-color:#02FAFB;stop-opacity:0"/>
	<stop  offset="1" style="stop-color:#00FFFC"/>
</linearGradient>
<path id="形状_14" class="st6" d="M130.1,227.3c12.1-32.1,26.2-53.1,36.8-58c10.5-4.8,27.1,25.8,34.7,19.5
	c7.5-6.3,8.1-16.4,15-18.8c6.9-2.4,6.2,5.7,10.4,2.1c4.2-3.5,5.8-33.6,23.3-37.9c17.2-4.2,13.7,39.6,24.9,35.2
	C244.2,181.6,177,209.3,130.1,227.3z"/>
<linearGradient id="形状_14_拷贝_1_" gradientUnits="userSpaceOnUse" x1="203.093" y1="191.3957" x2="176.3" y2="284.8337" gradientTransform="matrix(1 0 0 -1 0 421.4835)">
	<stop  offset="0" style="stop-color:#02FAFB;stop-opacity:0"/>
	<stop  offset="1" style="stop-color:#00FFFC"/>
</linearGradient>
<path id="形状_14_拷贝" class="st7" d="M121.8,228.7c12.1-32.1,26.2-53.1,36.8-58c10.5-4.8,27.1,25.8,34.7,19.5
	c7.5-6.3,8.1-16.4,15-18.8c6.9-2.4,6.2,5.7,10.4,2.1c4.2-3.5,5.8-33.6,23.3-37.9c17.2-4.2,13.7,39.6,24.9,35.2
	C235.9,183,168.7,210.7,121.8,228.7z"/>
<linearGradient id="矩形_9_拷贝_2_1_" gradientUnits="userSpaceOnUse" x1="528.5508" y1="165.5534" x2="364.0428" y2="256.7414" gradientTransform="matrix(1 0 0 -1 0 421.4835)">
	<stop  offset="0" style="stop-color:#02FAFB"/>
	<stop  offset="0.158" style="stop-color:#02FBFB;stop-opacity:0"/>
	<stop  offset="0.832" style="stop-color:#00FEFC"/>
	<stop  offset="1" style="stop-color:#00FFFC"/>
</linearGradient>
<path id="矩形_9_拷贝_2" class="st8" d="M350.2,243.6l186.6-78.3c3.4-1.5,7.3,0,9,3.3c1.4,3.2,0.1,6.9-3.1,8.3
	c-0.1,0.1-0.2,0.1-0.4,0.2l-186.6,78.4c-3.4,1.5-7.3,0-9-3.3c-1.4-3.2-0.1-6.9,3.1-8.3C350,243.7,350.1,243.7,350.2,243.6z"/>
<linearGradient id="矩形_10_1_" gradientUnits="userSpaceOnUse" x1="442.5355" y1="251.8357" x2="442.5355" y2="321.0257" gradientTransform="matrix(1 0 0 -1 0 421.4835)">
	<stop  offset="0" style="stop-color:#00F7FD"/>
	<stop  offset="0.979" style="stop-color:#00FDFC;stop-opacity:0"/>
	<stop  offset="1" style="stop-color:#00FDFC"/>
</linearGradient>
<path id="矩形_10" class="st9" d="M434.9,100.5l15.2,5.2l-0.3,64l-14.9-6.2L434.9,100.5L434.9,100.5z"/>
<linearGradient id="矩形_10_拷贝_2_1_" gradientUnits="userSpaceOnUse" x1="491.159" y1="231.4817" x2="491.159" y2="287.8698" gradientTransform="matrix(1 0 0 -1 0 421.4835)">
	<stop  offset="0" style="stop-color:#00F7FD"/>
	<stop  offset="0.979" style="stop-color:#00FDFC;stop-opacity:0"/>
	<stop  offset="1" style="stop-color:#00FDFC"/>
</linearGradient>
<path id="矩形_10_拷贝_2" class="st10" d="M483.1,133.6l16.8,6.1L499,190l-16.6-6.9L483.1,133.6z"/>
<linearGradient id="矩形_10_拷贝_3_1_" gradientUnits="userSpaceOnUse" x1="517.468" y1="220.5617" x2="517.468" y2="296.1417" gradientTransform="matrix(1 0 0 -1 0 421.4835)">
	<stop  offset="0" style="stop-color:#00F7FD"/>
	<stop  offset="0.979" style="stop-color:#00FDFC;stop-opacity:0"/>
	<stop  offset="1" style="stop-color:#00FDFC"/>
</linearGradient>
<path id="矩形_10_拷贝_3" class="st11" d="M509.2,125.3l17.9,6.1l-1.7,69.5l-17.5-7.3L509.2,125.3z"/>
<linearGradient id="矩形_10_拷贝_4_1_" gradientUnits="userSpaceOnUse" x1="544.979" y1="209.0137" x2="544.979" y2="276.4617" gradientTransform="matrix(1 0 0 -1 0 421.4835)">
	<stop  offset="0" style="stop-color:#00F7FD"/>
	<stop  offset="0.979" style="stop-color:#00FDFC;stop-opacity:0"/>
	<stop  offset="1" style="stop-color:#00FDFC"/>
</linearGradient>
<path id="矩形_10_拷贝_4" class="st12" d="M536.3,145l18.9,6.7l-1.9,60.8l-18.6-7.7L536.3,145z"/>
<linearGradient id="矩形_10_拷贝_1_" gradientUnits="userSpaceOnUse" x1="466.0215" y1="242.0467" x2="466.0215" y2="319.3177" gradientTransform="matrix(1 0 0 -1 0 421.4835)">
	<stop  offset="0" style="stop-color:#00F7FD"/>
	<stop  offset="0.979" style="stop-color:#00FDFC;stop-opacity:0"/>
	<stop  offset="1" style="stop-color:#00FDFC"/>
</linearGradient>
<path id="矩形_10_拷贝" class="st13" d="M458.2,102.2l16,5.4l-0.7,71.9l-15.7-6.5L458.2,102.2z"/>
<path id="矩形_8_拷贝" class="st14" d="M347.2,186l216.9,91.7l-216.9,92.8l-218.7-92.2L347.2,186z"/>
<path id="形状_3" class="st15" d="M127.7,251.7v11.3l218.7,92.1l-0.9-14L127.7,251.7z"/>
<linearGradient id="形状_4_1_" gradientUnits="userSpaceOnUse" x1="454.737" y1="66.1787" x2="454.737" y2="169.7477" gradientTransform="matrix(1 0 0 -1 0 421.4835)">
	<stop  offset="0" style="stop-color:#4B84F3"/>
	<stop  offset="1" style="stop-color:#2461DF"/>
</linearGradient>
<path id="形状_4" class="st16" d="M563.9,251.7l-0.6,10.2l-217.2,93.4l-0.6-11.9L563.9,251.7z"/>
<g class="st17">
	<path id="矩形_8_3_" class="st18" d="M346.4,159.5l218.7,92.2L346.4,344l-218.7-92.2L346.4,159.5z"/>
	<path id="矩形_8_1_" class="st19" d="M346.4,163.8l208.4,87.9l-208.4,87.9L138,251.7L346.4,163.8 M346.4,159.5l-218.7,92.2
		L346.4,344l218.7-92.2L346.4,159.5L346.4,159.5z"/>
</g>
<path id="椭圆_8" class="st20" d="M126.3,229.6c0-113.9,97.9-206.2,218.6-206.2s218.6,92.3,218.6,206.2"/>
<linearGradient id="矩形_6_拷贝_2_1_" gradientUnits="userSpaceOnUse" x1="428.3428" y1="249.0984" x2="276.3428" y2="230.4354" gradientTransform="matrix(1 0 0 -1 0 421.4835)">
	<stop  offset="0" style="stop-color:#2462DF"/>
	<stop  offset="0.337" style="stop-color:#2462DF"/>
	<stop  offset="1" style="stop-color:#00FFFC"/>
</linearGradient>
<path id="矩形_6_拷贝_2" class="st21" d="M276.5,139.7l66.6-16.7c5.1-2.2,13.4-2.2,18.5,0l66.8,19c0.1,9.4-0.5,42.4-0.6,70.7
	l-66.2,27.8c-5.1,2.2-13.4,2.2-18.5,0l-66.6-30.1C276.2,169.5,276.2,144.1,276.5,139.7z"/>
<linearGradient id="矩形_6_拷贝_2-2_1_" gradientUnits="userSpaceOnUse" x1="428.4973" y1="289.2525" x2="276.2163" y2="270.5555" gradientTransform="matrix(1 0 0 -1 0 421.4835)">
	<stop  offset="0" style="stop-color:#ADC5EC"/>
	<stop  offset="1" style="stop-color:#E4EFFF"/>
</linearGradient>
<path id="矩形_6_拷贝_2-2" class="st22" d="M280,137.6l63.1-27.1c5.1-2.2,13.4-2.2,18.5,0l63.1,27.1c5.1,2.2,5.1,5.7,0,7.9
	l-63.1,27.1c-5.1,2.2-13.4,2.2-18.5,0L280,145.5C274.9,143.4,274.9,139.8,280,137.6z"/>
<linearGradient id="矩形_6_拷贝_3_1_" gradientUnits="userSpaceOnUse" x1="403.9679" y1="286.3258" x2="300.9369" y2="273.6758" gradientTransform="matrix(1 0 0 -1 0 421.4835)">
	<stop  offset="0" style="stop-color:#ADC5EC"/>
	<stop  offset="1" style="stop-color:#E4EFFF"/>
</linearGradient>
<path id="矩形_6_拷贝_3" class="st23" d="M303.5,138.8l42.7-18.2c4-1.5,8.5-1.5,12.5,0l42.7,18.2c3.4,1.5,3.4,3.9,0,5.3
	l-42.7,18.2c-4,1.5-8.5,1.5-12.5,0l-42.7-18.2C300.1,142.7,300.1,140.3,303.5,138.8z"/>
<ellipse id="椭圆_1_拷贝" class="st24" cx="351.2" cy="118.8" rx="9.8" ry="4.9"/>
<linearGradient id="矩形_6_拷贝_6_1_" gradientUnits="userSpaceOnUse" x1="351.047" y1="302.8977" x2="351.047" y2="369.5227" gradientTransform="matrix(1 0 0 -1 0 421.4835)">
	<stop  offset="0" style="stop-color:#24DFD8"/>
	<stop  offset="0.7" style="stop-color:#24DFD8;stop-opacity:0"/>
</linearGradient>
<rect id="矩形_6_拷贝_6" x="341.4" y="52" class="st25" width="19.3" height="66.6"/>
<linearGradient id="矩形_6_拷贝_6-2_1_" gradientUnits="userSpaceOnUse" x1="351.266" y1="302.8977" x2="351.266" y2="369.5227" gradientTransform="matrix(1 0 0 -1 0 421.4835)">
	<stop  offset="0" style="stop-color:#24DFD8"/>
	<stop  offset="1" style="stop-color:#24DFD8;stop-opacity:0"/>
</linearGradient>
<rect id="矩形_6_拷贝_6-2" x="345.9" y="52" class="st26" width="10.7" height="66.6"/>
<circle id="椭圆_6" class="st27" cx="352.1" cy="91.5" r="1.5"/>
<circle id="椭圆_6_拷贝" class="st28" cx="351" cy="97.8" r="1.2"/>
<ellipse id="椭圆_6_拷贝_2" class="st28" cx="353.7" cy="101.8" rx="0.8" ry="0.7"/>
<ellipse id="椭圆_1_拷贝-2" class="st24" cx="301.8" cy="140" rx="9.8" ry="4.9"/>
<linearGradient id="矩形_6_拷贝_6-3_1_" gradientUnits="userSpaceOnUse" x1="301.6095" y1="281.6477" x2="301.6095" y2="348.3037" gradientTransform="matrix(1 0 0 -1 0 421.4835)">
	<stop  offset="0" style="stop-color:#24DFD8"/>
	<stop  offset="0.7" style="stop-color:#24DFD8;stop-opacity:0"/>
</linearGradient>
<rect id="矩形_6_拷贝_6-3" x="292" y="73.2" class="st29" width="19.2" height="66.7"/>
<linearGradient id="矩形_6_拷贝_6-4_1_" gradientUnits="userSpaceOnUse" x1="301.8435" y1="281.6477" x2="301.8435" y2="348.3037" gradientTransform="matrix(1 0 0 -1 0 421.4835)">
	<stop  offset="0" style="stop-color:#24DFD8"/>
	<stop  offset="1" style="stop-color:#24DFD8;stop-opacity:0"/>
</linearGradient>
<rect id="矩形_6_拷贝_6-4" x="296.5" y="73.2" class="st30" width="10.6" height="66.7"/>
<circle id="椭圆_6-2" class="st27" cx="305" cy="94.5" r="1.5"/>
<circle id="椭圆_6_拷贝-2" class="st28" cx="297.7" cy="113.9" r="1.2"/>
<ellipse id="椭圆_6_拷贝_2-2" class="st28" cx="305.8" cy="122.3" rx="0.8" ry="0.7"/>
<ellipse id="椭圆_1_拷贝-3" class="st24" cx="401.5" cy="140" rx="9.8" ry="4.9"/>
<linearGradient id="矩形_6_拷贝_6-5_1_" gradientUnits="userSpaceOnUse" x1="401.25" y1="281.6477" x2="401.25" y2="348.3037" gradientTransform="matrix(1 0 0 -1 0 421.4835)">
	<stop  offset="0" style="stop-color:#24DFD8"/>
	<stop  offset="0.7" style="stop-color:#24DFD8;stop-opacity:0"/>
</linearGradient>
<rect id="矩形_6_拷贝_6-5" x="391.6" y="73.2" class="st31" width="19.2" height="66.7"/>
<linearGradient id="矩形_6_拷贝_6-6_1_" gradientUnits="userSpaceOnUse" x1="401.453" y1="281.6477" x2="401.453" y2="348.3037" gradientTransform="matrix(1 0 0 -1 0 421.4835)">
	<stop  offset="0" style="stop-color:#24DFD8"/>
	<stop  offset="1" style="stop-color:#24DFD8;stop-opacity:0"/>
</linearGradient>
<rect id="矩形_6_拷贝_6-6" x="396.1" y="73.2" class="st32" width="10.7" height="66.7"/>
<circle id="椭圆_6-3" class="st27" cx="402.3" cy="115" r="1.5"/>
<ellipse id="椭圆_6_拷贝-3" class="st28" cx="405" cy="119" rx="1.2" ry="1.1"/>
<ellipse id="椭圆_6_拷贝_2-3" class="st28" cx="403.9" cy="123" rx="0.8" ry="0.7"/>
<linearGradient id="矩形_6_拷贝_2-3_1_" gradientUnits="userSpaceOnUse" x1="524.3421" y1="192.2453" x2="372.3421" y2="173.5814" gradientTransform="matrix(1 0 0 -1 0 421.4835)">
	<stop  offset="0" style="stop-color:#004AF1"/>
	<stop  offset="0.337" style="stop-color:#004AF1"/>
	<stop  offset="1" style="stop-color:#00FFFC"/>
</linearGradient>
<path id="矩形_6_拷贝_2-3" class="st33" d="M372.5,211.5l66.6-16.7c5.1-2.2,13.4-2.2,18.5,0l66.8,19c-0.2,9.7-0.2,11.2-1.2,39.6
	l-65.6,28.9c-5.1,2.2-13.4,2.2-18.5,0L372.5,254C372.2,213.1,372.2,215.9,372.5,211.5z"/>
<g>
	
		<linearGradient id="矩形_6_拷贝_2-4_2_" gradientUnits="userSpaceOnUse" x1="524.4982" y1="217.402" x2="372.2173" y2="198.7039" gradientTransform="matrix(1 0 0 -1 0 421.4835)">
		<stop  offset="0" style="stop-color:#004AF1"/>
		<stop  offset="0.337" style="stop-color:#004AF1"/>
		<stop  offset="1" style="stop-color:#00FFFC"/>
	</linearGradient>
	<path id="矩形_6_拷贝_2-4_3_" class="st34" d="M376,209.5l63.1-27.1c5.1-2.2,13.4-2.2,18.5,0l63.1,27.1c5.1,2.2,5.1,5.7,0,7.9
		l-63.1,27.1c-5.1,2.2-13.4,2.2-18.5,0L376,217.4C370.9,215.2,370.9,211.7,376,209.5z"/>
	<path id="矩形_6_拷贝_2-4_1_" class="st19" d="M448.3,182.8c3.2,0,6.3,0.5,8.4,1.5l63.1,27.1c2.1,0.9,2.6,1.8,2.6,2.1
		c0,0.3-0.5,1.2-2.6,2.1l-63.1,27.1c-2.2,0.9-5.3,1.5-8.4,1.5c-3.2,0-6.3-0.5-8.4-1.5l-63.1-27.1c-2.1-0.9-2.6-1.8-2.6-2.1
		c0-0.3,0.5-1.2,2.6-2.1l63.1-27.1C442.1,183.3,445.2,182.8,448.3,182.8 M448.3,180.8c-3.3,0-6.7,0.5-9.2,1.6L376,209.5
		c-5.1,2.2-5.1,5.7,0,7.9l63.1,27.1c2.5,1.1,5.9,1.6,9.2,1.6c3.3,0,6.7-0.5,9.2-1.6l63.1-27.1c5.1-2.2,5.1-5.7,0-7.9l-63.1-27.1
		C455,181.3,451.7,180.8,448.3,180.8L448.3,180.8z"/>
</g>
<linearGradient id="矩形_6_拷贝_2-5_1_" gradientUnits="userSpaceOnUse" x1="332.3445" y1="176.8778" x2="176.3445" y2="157.7228" gradientTransform="matrix(1 0 0 -1 0 421.4835)">
	<stop  offset="0" style="stop-color:#2462DF"/>
	<stop  offset="0.337" style="stop-color:#2462DF"/>
	<stop  offset="1" style="stop-color:#00FFFC"/>
</linearGradient>
<path id="矩形_6_拷贝_2-5" class="st35" d="M180.2,238.9l65.2-15.7c5.1-2.2,13.4-2.2,18.5,0l64.7,15.3c5.1,2.2,5.1,17.7,0,19.8
	l-64.7,26.9c-5.1,2.2-13.4,2.2-18.5,0l-65.2-27.7C175.1,255.3,175.1,241.1,180.2,238.9z"/>
<linearGradient id="矩形_6_拷贝_2-6_1_" gradientUnits="userSpaceOnUse" x1="330.6855" y1="189.077" x2="178.4355" y2="170.384" gradientTransform="matrix(1 0 0 -1 0 421.4835)">
	<stop  offset="0" style="stop-color:#ADC5EC"/>
	<stop  offset="1" style="stop-color:#E4EFFF"/>
</linearGradient>
<path id="矩形_6_拷贝_2-6" class="st36" d="M182.2,237.8l63.1-27.1c5.1-2.2,13.4-2.2,18.5,0l63.1,27.1c5.1,2.2,5.1,5.7,0,7.9
	l-63.1,27.1c-5.1,2.2-13.4,2.2-18.5,0l-63.1-27.1C177.1,243.5,177.1,240,182.2,237.8z"/>
<linearGradient id="矩形_6_拷贝_3-2_1_" gradientUnits="userSpaceOnUse" x1="306.1533" y1="186.1502" x2="203.1532" y2="173.5032" gradientTransform="matrix(1 0 0 -1 0 421.4835)">
	<stop  offset="0" style="stop-color:#ADC5EC"/>
	<stop  offset="1" style="stop-color:#E4EFFF"/>
</linearGradient>
<path id="矩形_6_拷贝_3-2" class="st37" d="M205.7,239l42.7-18.2c4-1.5,8.5-1.5,12.5,0l42.7,18.2c3.4,1.5,3.4,3.9,0,5.3
	l-42.7,18.2c-4,1.5-8.5,1.5-12.5,0l-42.7-18.2C202.3,242.9,202.3,240.5,205.7,239z"/>
<ellipse id="椭圆_3" class="st38" cx="148.2" cy="141.3" rx="17.6" ry="16.6"/>
<path class="st39" d="M172.6,151.1l-3.7-1.5c1-2.5,1.6-5.1,1.6-7.8c0-11.8-10.2-21.5-22.7-21.5v-4c14.7,0,26.7,11.4,26.7,25.5
	C174.5,145,173.8,148.2,172.6,151.1z"/>
<path class="st39" d="M148.4,166.7c-4.7,0-9.5-1.2-13.8-3.7c-2.9-1.7-5.4-3.9-7.5-6.5l3.1-2.5c1.8,2.2,3.9,4.1,6.3,5.5
	c10.8,6.3,24.7,3,31.2-7.4l3.4,2.1C166.2,162.2,157.4,166.7,148.4,166.7z"/>
<path class="st40" d="M125.6,154c-3.5-5.8-4.5-12.6-2.7-19c1.8-6.7,6.4-12.3,12.7-15.7c3-1.6,6.1-2.6,9.5-3l0.5,4
	c-2.8,0.4-5.6,1.2-8.1,2.6c-5.4,2.9-9.2,7.6-10.8,13.2c-1.5,5.4-0.7,11,2.3,15.9L125.6,154z"/>
<circle id="椭圆_5" class="st41" cx="148.7" cy="137.4" r="3.6"/>
<path id="矩形_7" class="st41" d="M148.4,139.7h0.4c3.4,0,6.2,2.8,6.2,6.2v0.2c0,1.2-1,2.2-2.2,2.2c0,0,0,0,0,0h-8.5
	c-1.2,0-2.2-1-2.2-2.2v-0.2C142.2,142.5,145,139.7,148.4,139.7C148.4,139.7,148.4,139.7,148.4,139.7z"/>
<ellipse id="椭圆_3_拷贝" class="st38" cx="350.9" cy="27.8" rx="17.6" ry="16.6"/>
<path class="st40" d="M375.3,37.7l-3.7-1.5c1-2.5,1.6-5.1,1.6-7.8c0-11.8-10.2-21.5-22.7-21.5v-4c14.7,0,26.7,11.4,26.7,25.5
	C377.2,31.6,376.6,34.7,375.3,37.7z"/>
<path class="st39" d="M351.1,53.2c-4.7,0-9.5-1.2-13.8-3.7c-2.9-1.7-5.4-3.9-7.5-6.5l3.1-2.5c1.8,2.2,3.9,4.1,6.3,5.5
	c10.8,6.3,24.7,3,31.2-7.4l3.4,2.1C368.9,48.8,360.1,53.2,351.1,53.2z"/>
<path class="st39" d="M328.3,40.6c-3.5-5.8-4.5-12.6-2.7-19c1.8-6.7,6.4-12.3,12.7-15.7c3-1.6,6.1-2.6,9.5-3l0.5,4
	c-2.8,0.4-5.6,1.2-8.1,2.6c-5.4,2.9-9.2,7.6-10.8,13.2c-1.5,5.4-0.7,11,2.3,15.9L328.3,40.6z"/>
<ellipse id="椭圆_5_拷贝" class="st41" cx="351.4" cy="24" rx="3.6" ry="3.4"/>
<path id="矩形_7_拷贝" class="st41" d="M351.1,26.3h0.4c3.4,0,6.2,2.8,6.2,6.2c0,0,0,0,0,0v0.2c0,1.2-1,2.2-2.2,2.2h-8.5
	c-1.2,0-2.2-1-2.2-2.2v-0.2C344.9,29,347.7,26.3,351.1,26.3L351.1,26.3L351.1,26.3z"/>
<ellipse id="椭圆_3_拷贝_2" class="st38" cx="536.2" cy="145.6" rx="17.5" ry="16.6"/>
<path class="st39" d="M560.6,155.4l-3.7-1.5c1-2.5,1.6-5.1,1.6-7.8c0-11.8-10.2-21.5-22.7-21.5v-4c14.7,0,26.7,11.4,26.7,25.5
	C562.5,149.3,561.9,152.4,560.6,155.4z"/>
<path class="st40" d="M536.4,170.9c-4.7,0-9.5-1.2-13.8-3.7c-2.9-1.7-5.4-3.9-7.5-6.5l3.1-2.5c1.8,2.2,3.9,4.1,6.3,5.5
	c10.8,6.3,24.7,3,31.2-7.4l3.4,2.1C554.2,166.5,545.5,170.9,536.4,170.9z"/>
<path class="st39" d="M513.7,158.3c-3.5-5.8-4.5-12.6-2.7-19c1.8-6.7,6.4-12.3,12.7-15.7c3-1.6,6.1-2.6,9.5-3l0.5,4
	c-2.8,0.4-5.6,1.2-8.1,2.6c-5.4,2.9-9.2,7.6-10.8,13.2c-1.5,5.4-0.7,11,2.3,15.9L513.7,158.3z"/>
<circle id="椭圆_5_拷贝_2" class="st41" cx="536.7" cy="141.7" r="3.6"/>
<path id="矩形_7_拷贝_2" class="st41" d="M536.4,144h0.5c3.4,0,6.2,2.8,6.2,6.2c0,0,0,0,0,0v0.2c0,1.2-1,2.2-2.2,2.2h-8.6
	c-1.2,0-2.2-1-2.2-2.2v-0.2C530.3,146.8,533,144,536.4,144L536.4,144L536.4,144z"/>
<g class="st42">
	<path class="st43" d="M433.4,206.2h5.3v8c0,0.9,0.2,1.5,0.6,1.9c0.6,0.7,2,1.1,4.1,1.1c2.1,0,3.5-0.4,4.1-1.1
		c0.4-0.4,0.6-1.1,0.6-1.9v-8h5.3v8c0,1.4-0.4,2.4-1.2,3.2c-1.5,1.4-4.5,2.1-8.8,2.1s-7.3-0.7-8.8-2.1c-0.8-0.8-1.2-1.8-1.2-3.2
		V206.2z"/>
	<path class="st43" d="M463.3,219.1h-5.2v-13h5.2V219.1z"/>
</g>
<g class="st42">
	<path class="st43" d="M231.6,232.7h5.9l8.8,13h-5.7L239,243h-9.2l-1.7,2.7h-5.5L231.6,232.7z M231.3,240.8h6.4l-3.2-5.1
		L231.3,240.8z"/>
	<path class="st43" d="M266.3,240.1c-1.5,0.6-3.6,0.9-6.3,0.9h-5.2v4.7h-5.2v-13h10.7c2.5,0,4.4,0.3,5.9,1c1.5,0.7,2.2,1.7,2.2,3.1
		C268.5,238.3,267.8,239.4,266.3,240.1z M262.3,235.4c-0.7-0.3-1.6-0.4-2.8-0.4h-4.7v3.8h4.7c1.2,0,2.1-0.2,2.8-0.5s1-0.8,1-1.5
		S263,235.7,262.3,235.4z"/>
	<path class="st43" d="M277.5,245.7h-5.2v-13h5.2V245.7z"/>
</g>
<path class="st43" d="M310.3,134.3c1.7-1.1,3.8-1.6,6.4-1.6c3.4,0,6,0.7,7.6,2.1c0.9,0.8,1.4,1.6,1.4,2.4h-4.3
	c-0.3-0.6-0.6-1.1-1.1-1.4c-0.8-0.6-1.9-0.8-3.4-0.8c-1.5,0-2.8,0.4-3.6,1.2c-0.9,0.8-1.3,1.9-1.3,3.4s0.5,2.5,1.4,3.3
	s2.1,1.1,3.6,1.1c1.5,0,2.6-0.3,3.4-0.9c0.4-0.3,0.8-0.8,1.1-1.5h4.3c-0.4,1.4-1.3,2.6-2.8,3.4s-3.5,1.3-5.9,1.3
	c-2.9,0-5.3-0.6-6.9-1.8c-1.7-1.2-2.5-2.8-2.5-4.9C307.5,137.2,308.4,135.5,310.3,134.3z"/>
<path class="st43" d="M345.1,144.7c-1.6,1-3.8,1.5-6.8,1.5c-3,0-5.2-0.5-6.8-1.5c-2.1-1.2-3.1-3-3.1-5.3c0-2.4,1-4.2,3.1-5.3
	c1.6-1,3.8-1.5,6.8-1.5c3,0,5.2,0.5,6.8,1.5c2.1,1.2,3.1,3,3.1,5.3C348.2,141.7,347.2,143.5,345.1,144.7z M342.4,142.7
	c1-0.8,1.5-1.9,1.5-3.4c0-1.5-0.5-2.6-1.5-3.4s-2.4-1.2-4.1-1.2s-3.1,0.4-4.1,1.2c-1,0.8-1.5,1.9-1.5,3.4s0.5,2.6,1.5,3.4
	c1,0.8,2.4,1.2,4.1,1.2S341.4,143.5,342.4,142.7z"/>
<path class="st43" d="M363.7,133.2c1.5,0.3,2.6,0.8,3.5,1.6c0.7,0.6,1.2,1.3,1.5,2.1s0.4,1.5,0.4,2.1c0,1.7-0.6,3.2-1.7,4.4
	c-1.5,1.6-3.8,2.4-6.9,2.4h-8.9v-13h8.9C361.7,132.9,362.8,133,363.7,133.2z M355.7,135.2v8.5h4c2,0,3.5-0.6,4.3-1.9
	c0.4-0.7,0.7-1.5,0.7-2.5c0-1.3-0.3-2.3-1-3s-2-1.1-3.9-1.1H355.7z"/>
<path class="st43" d="M387.6,135.2h-11v2.8h10.1v2.2h-10.1v3.3h11.5v2.3h-15.7v-13h15.2V135.2z"/>
<path id="形状_5" class="st0" d="M436.5,281.4l-5,2.3l0.7,4.5l-7.5,3.7l-18.5,0.4l-7.6,3.6l1.5,13.6l-46,21.3"/>
<path id="形状_5_拷贝" class="st0" d="M427.4,277.8l-7.1,2.7l0.8,5.1l-3.9,1.4l-19-0.7l-8.1,3.3l2,11.9l-36.5,16"/>
<path id="形状_6" class="st0" d="M416.2,272.9l-2.5,1.4l0,4.1l-7.8,3.7l-10.7-0.5l-12.1,5.2l1.2,7.3l-9.6,3.9l-11.3-0.3l-11.4,4.5
	"/>
<path id="形状_7" class="st0" d="M404.1,268.5l-2.6,1.4l1.7,3.9l-6.8,2.9l-5.3-2.1l-12.9,6.4l-0.8,3.6l-13.6,5.7l0,2.6l-2.7,1.5
	l-4.1-1.2l-25.7,9.3"/>
<path id="形状_8" class="st0" d="M394.8,263.9l-7.5,4.3l-3.8-2.1l-6.1,4.3l0.8,3.6l-5.3,2.5l-4.5-1.8l-9.8,4.3l-0.8,5l-13.4,6.8"
	/>
<path id="形状_9" class="st0" d="M381.2,256.7l-6.1,3.6l0.8,5.7l-5.3,2.9l-6.1-2.9l-15.1,7.9l0.5,4.9l-42.9,18.7"/>
<path id="形状_10" class="st0" d="M375.7,252.9l-10.5,4.1l0.9,4.7l-12.1,5l-7.6-2.9l-12.9,5.7l1.5,7.8l-59.3,24.3"/>
<path id="椭圆_9" class="st1" d="M352,329.7c1.9,0,3.6,0.7,3.7,1.6s-1.2,1.6-3.2,1.6s-3.6-0.7-3.8-1.6S350.1,329.7,352,329.7z"/>
<path id="椭圆_9_拷贝" class="st1" d="M353.4,315.9c1.9,0,3.6,0.7,3.7,1.6s-1.3,1.6-3.2,1.5s-3.6-0.7-3.8-1.6
	S351.5,315.9,353.4,315.9z"/>
<path id="椭圆_9_拷贝_2" class="st1" d="M349.1,301.2c1.9,0,3.6,0.8,3.8,1.7s-1.3,1.6-3.2,1.5s-3.6-0.8-3.8-1.7
	S347.2,301.2,349.1,301.2z"/>
<path id="椭圆_9_拷贝_3" class="st1" d="M333.2,299.4c2,0,3.8,0.8,3.9,1.7s-1.3,1.6-3.3,1.6s-3.8-0.8-4-1.7
	S331.2,299.3,333.2,299.4z"/>
<path id="椭圆_9_拷贝_7" class="st1" d="M324.3,304.5c1.3,0,2.4,0.5,2.5,1.1s-0.8,1-2.1,1s-2.4-0.5-2.5-1.1
	S323.1,304.5,324.3,304.5z"/>
<path id="椭圆_9_拷贝_8" class="st1" d="M298.6,301c1.3,0,2.4,0.5,2.5,1.1s-0.8,1-2.1,1s-2.4-0.5-2.5-1.1S297.3,300.9,298.6,301
	z"/>
<path id="椭圆_9_拷贝_9" class="st1" d="M287.7,306c1,0,2,0.4,2,0.7s-0.7,0.7-1.7,0.7s-2-0.4-2.1-0.7S286.6,305.9,287.7,306z"/>
<path id="椭圆_9_拷贝_6" class="st1" d="M344.4,288.2c1.9,0.1,3.7,0.8,3.8,1.7s-1.3,1.6-3.2,1.5s-3.7-0.8-3.8-1.7
	S342.4,288.1,344.4,288.2z"/>
<path id="椭圆_9_拷贝_4" class="st1" d="M308.2,295.2c2.1,0.1,3.9,0.9,4,1.8s-1.3,1.6-3.4,1.5s-3.9-0.9-4.1-1.8
	S306.2,295.1,308.2,295.2z"/>
<path id="椭圆_9_拷贝_5" class="st1" d="M275,299.9c2.2,0.1,4.1,0.9,4.3,1.8s-1.4,1.7-3.6,1.6s-4.1-0.8-4.3-1.8
	S272.8,299.9,275,299.9z"/>
</svg>
