<?xml version="1.0" encoding="utf-8"?>
<!-- Generator: Adobe Illustrator 24.2.0, SVG Export Plug-In . SVG Version: 6.00 Build 0)  -->
<svg version="1.1" id="图层_1" xmlns="http://www.w3.org/2000/svg" xmlns:xlink="http://www.w3.org/1999/xlink" x="0px" y="0px"
	 viewBox="0 0 974 413" style="enable-background:new 0 0 974 413;" xml:space="preserve">
<style type="text/css">
	.st0{fill:url(#SVGID_1_);filter:url(#f1);}
	.st1{fill:url(#SVGID_2_);filter:url(#f1);}
</style>
<linearGradient id="SVGID_1_" gradientUnits="userSpaceOnUse" x1="137.2704" y1="259.964" x2="323.0434" y2="143.8802" gradientTransform="matrix(1 0 0 -1 0 440)">
	<stop  offset="0" style="stop-color:#00F7FD"/>
	<stop  offset="1" style="stop-color:#0000FF"/>
</linearGradient>
<filter id="f1">
  <feGaussianBlur in="SourceGraphic" stdDeviation="3" />
</filter>
<path class="st0" d="M262,306.1c-14.5,0-29.9-1.7-45.4-5c-30.1-6.5-57.2-18.5-76.5-33.8c-21.2-16.9-30.7-36.2-26.8-54.3
	c3.9-18.1,20.5-31.8,46.7-38.5c23.8-6.1,53.5-5.9,83.6,0.5l0,0c30.1,6.5,57.2,18.5,76.5,33.8c21.2,16.9,30.7,36.2,26.8,54.3
	s-20.5,31.8-46.7,38.5C288.7,304.6,275.7,306.1,262,306.1z M198.3,190c-12,0-23.3,1.3-33.3,3.8c-18.2,4.7-30,13.2-32.1,23.4
	c-2.2,10.2,5,22.8,19.7,34.5c16.9,13.5,41.1,24.1,68.2,29.9c27.1,5.8,53.6,6.1,74.5,0.7c18.2-4.7,30-13.2,32.1-23.4
	c4.4-20.6-30.6-52.1-88-64.4C225.3,191.5,211.4,190,198.3,190z"/>
<linearGradient id="SVGID_2_" gradientUnits="userSpaceOnUse" x1="645.3484" y1="413.9727" x2="831.1213" y2="297.8888" gradientTransform="matrix(1 0 0 -1 0 440)">
	<stop  offset="0" style="stop-color:#00F7FD"/>
	<stop  offset="1" style="stop-color:#0000FF"/>
</linearGradient>
<path class="st1" d="M770.1,152.1c-14.5,0-29.9-1.7-45.4-5c-30.1-6.5-57.2-18.5-76.5-33.8C627,96.4,617.5,77.1,621.4,59
	c3.9-18.1,20.5-31.8,46.7-38.5c23.8-6.1,53.5-5.9,83.6,0.5l0,0c30.1,6.5,57.2,18.5,76.5,33.8c21.2,16.9,30.7,36.2,26.8,54.3
	s-20.5,31.8-46.7,38.5C796.8,150.6,783.8,152.1,770.1,152.1z M706.3,36c-12,0-23.3,1.3-33.3,3.8c-18.2,4.7-30,13.2-32.1,23.4
	c-2.2,10.2,5,22.8,19.7,34.5c16.9,13.5,41.1,24.1,68.2,29.9c27.1,5.8,53.6,6.1,74.5,0.7c18.2-4.7,30-13.2,32.1-23.4
	c4.4-20.6-30.6-52.1-88-64.4C733.4,37.5,719.4,36,706.3,36z"/>
</svg>
