<?xml version="1.0" encoding="utf-8"?>
<!-- Generator: Adobe Illustrator 24.2.0, SVG Export Plug-In . SVG Version: 6.00 Build 0)  -->
<svg version="1.1" id="图层_1" xmlns="http://www.w3.org/2000/svg" xmlns:xlink="http://www.w3.org/1999/xlink" x="0px" y="0px"
	 viewBox="0 0 1920 1250.3" style="enable-background:new 0 0 1920 1250.3;" xml:space="preserve">
<style type="text/css">
	.st0{opacity:0.1;}
	.st1{fill-rule:evenodd;clip-rule:evenodd;fill:#EBEFF5;}
	.st2{fill-rule:evenodd;clip-rule:evenodd;fill:#F2F7FF;}
	.st3{fill-rule:evenodd;clip-rule:evenodd;fill:url(#矩形_955_拷贝_5_1_);}
	.st4{fill-rule:evenodd;clip-rule:evenodd;fill:url(#椭圆_1025_1_);}
	.st5{fill-rule:evenodd;clip-rule:evenodd;fill:url(#椭圆_1025_拷贝_1_);}
	.st6{fill-rule:evenodd;clip-rule:evenodd;fill:url(#椭圆_1025_拷贝_2_1_);}
	.st7{opacity:0.46;fill-rule:evenodd;clip-rule:evenodd;fill:url(#矩形_955_拷贝_7_1_);enable-background:new    ;}
	.st8{opacity:0.46;fill-rule:evenodd;clip-rule:evenodd;fill:url(#矩形_955_拷贝_11_1_);enable-background:new    ;}
	.st9{fill-rule:evenodd;clip-rule:evenodd;fill:url(#矩形_955_拷贝_5-2_1_);}
	.st10{opacity:0.45;fill-rule:evenodd;clip-rule:evenodd;fill:#A8CDFF;stroke:#FFFFFF;enable-background:new    ;}
	.st11{fill-rule:evenodd;clip-rule:evenodd;fill:url(#矩形_955_拷贝_12_1_);}
	.st12{fill-rule:evenodd;clip-rule:evenodd;fill:url(#矩形_955_拷贝_12-2_1_);}
	.st13{fill-rule:evenodd;clip-rule:evenodd;fill:url(#形状_970_拷贝_5_1_);}
	.st14{fill-rule:evenodd;clip-rule:evenodd;fill:url(#形状_971_拷贝_3_1_);}
	.st15{fill-rule:evenodd;clip-rule:evenodd;fill:url(#形状_972_拷贝_3_1_);}
	.st16{fill-rule:evenodd;clip-rule:evenodd;fill:url(#形状_970_拷贝_7_1_);}
	.st17{fill-rule:evenodd;clip-rule:evenodd;fill:url(#形状_971_拷贝_5_1_);}
	.st18{fill-rule:evenodd;clip-rule:evenodd;fill:url(#形状_972_拷贝_5_1_);}
	.st19{fill-rule:evenodd;clip-rule:evenodd;fill:url(#形状_970_拷贝_9_1_);}
	.st20{fill-rule:evenodd;clip-rule:evenodd;fill:url(#形状_971_拷贝_7_1_);}
	.st21{fill-rule:evenodd;clip-rule:evenodd;fill:url(#形状_972_拷贝_7_1_);}
	.st22{fill-rule:evenodd;clip-rule:evenodd;fill:url(#形状_970_拷贝_8_1_);}
	.st23{fill-rule:evenodd;clip-rule:evenodd;fill:url(#形状_971_拷贝_6_1_);}
	.st24{fill-rule:evenodd;clip-rule:evenodd;fill:url(#形状_972_拷贝_6_1_);}
	.st25{opacity:9.000000e-02;}
	.st26{fill-rule:evenodd;clip-rule:evenodd;fill:url(#矩形_977_拷贝_1_);}
	.st27{fill-rule:evenodd;clip-rule:evenodd;fill:url(#矩形_955_拷贝_8_1_);}
	.st28{fill-rule:evenodd;clip-rule:evenodd;fill:url(#矩形_955_拷贝_8-2_1_);}
	.st29{fill-rule:evenodd;clip-rule:evenodd;fill:url(#矩形_955_拷贝_9_1_);}
	.st30{fill-rule:evenodd;clip-rule:evenodd;fill:url(#矩形_955_拷贝_9-2_1_);}
	.st31{fill-rule:evenodd;clip-rule:evenodd;fill:url(#矩形_955_拷贝_10_1_);}
	.st32{fill-rule:evenodd;clip-rule:evenodd;fill:url(#矩形_955_拷贝_10-2_1_);}
	.st33{fill-rule:evenodd;clip-rule:evenodd;fill:#DAE1EA;}
	.st34{fill-rule:evenodd;clip-rule:evenodd;fill:url(#形状_987_1_);}
	.st35{fill-rule:evenodd;clip-rule:evenodd;fill:url(#矩形_957_拷贝_1_);}
	.st36{opacity:0.78;fill-rule:evenodd;clip-rule:evenodd;fill:#A8CDFF;stroke:#FFFFFF;enable-background:new    ;}
	.st37{fill-rule:evenodd;clip-rule:evenodd;fill:url(#矩形_977_拷贝_2_1_);}
	.st38{fill-rule:evenodd;clip-rule:evenodd;fill:url(#矩形_977_拷贝_5_1_);}
	.st39{opacity:4.000000e-02;fill-rule:evenodd;clip-rule:evenodd;fill:url(#形状_823_拷贝_2_1_);enable-background:new    ;}
	.st40{opacity:4.000000e-02;fill-rule:evenodd;clip-rule:evenodd;fill:url(#形状_824_拷贝_2_1_);enable-background:new    ;}
	.st41{opacity:4.000000e-02;fill-rule:evenodd;clip-rule:evenodd;fill:url(#形状_825_拷贝_2_1_);enable-background:new    ;}
	.st42{opacity:8.000000e-02;fill-rule:evenodd;clip-rule:evenodd;fill:url(#形状_820_拷贝_1_);enable-background:new    ;}
	.st43{opacity:8.000000e-02;fill-rule:evenodd;clip-rule:evenodd;fill:url(#形状_821_拷贝_1_);enable-background:new    ;}
	.st44{opacity:8.000000e-02;fill-rule:evenodd;clip-rule:evenodd;fill:url(#形状_822_拷贝_1_);enable-background:new    ;}
</style>
<g id="登录">
	<g id="_-s-底图">
		<g id="组_41_拷贝" class="st0">
			<path id="矩形_955_拷贝_2" class="st1" d="M1618.1,822.8l215.1,60.9c8.1,3.7,5.1,46.4-3,50.1l-212.1,97.5
				c-8.1,3.7-21.2,3.7-29.3,0l-212.1-97.5c-8.1-3.7-11-46.4-2.9-50.1l215-60.9C1596.9,819,1610,819,1618.1,822.8z"/>
			<path id="矩形_955_拷贝_2-2" class="st2" d="M1618.1,782.3l212.1,97.5c8.1,3.7,8.1,9.7,0,13.4l-212.1,97.5
				c-8.1,3.7-21.2,3.7-29.3,0l-212.1-97.5c-8.1-3.7-8.1-9.7,0-13.4l212.1-97.5C1596.9,778.6,1610,778.6,1618.1,782.3z"/>

				<linearGradient id="矩形_955_拷贝_5_1_" gradientUnits="userSpaceOnUse" x1="3665.156" y1="-63.8877" x2="3665.156" y2="111.0142" gradientTransform="matrix(1 0 0 -1 -2053 868.8898)">
				<stop  offset="0" style="stop-color:#1774FF"/>
				<stop  offset="1" style="stop-color:#1DA9FF"/>
			</linearGradient>
			<path id="矩形_955_拷贝_5" class="st3" d="M1618.5,759.2l95,29c-0.6,55.8-0.5,60.7-0.5,103.7l-94.6,39.6
				c-4,1.7-8.6,1.7-12.6,0l-94.6-39.6c-0.5-35.8-0.5-86.3-0.4-100.8l95-31.9C1609.9,757.4,1614.4,757.4,1618.5,759.2z"/>

				<linearGradient id="椭圆_1025_1_" gradientUnits="userSpaceOnUse" x1="3633.3298" y1="-6.0552" x2="3656.5" y2="-6.0552" gradientTransform="matrix(1 0 0 -1 -2053 868.8898)">
				<stop  offset="0" style="stop-color:#26FFFF"/>
				<stop  offset="1" style="stop-color:#1EFAFF"/>
			</linearGradient>
			<path id="椭圆_1025" class="st4" d="M1591.9,857.6c6.4,0,11.6,7.8,11.6,17.4s-5.2,17.4-11.6,17.4s-11.6-7.8-11.6-17.4
				S1585.5,857.6,1591.9,857.6z"/>
				<linearGradient id="椭圆_1025_拷贝_1_" gradientUnits="userSpaceOnUse" x1="3601.51" y1="4.0647" x2="3624.6401" y2="4.0647" gradientTransform="matrix(1 0 0 -1 -2053 868.8898)">
				<stop  offset="0" style="stop-color:#26FFFF"/>
				<stop  offset="1" style="stop-color:#1EFAFF"/>
			</linearGradient>
			<path id="椭圆_1025_拷贝" class="st5" d="M1560.1,848.9c6.4,0,11.6,7.1,11.6,15.9s-5.2,15.9-11.6,15.9s-11.6-7.1-11.6-15.9
				S1553.7,848.9,1560.1,848.9z"/>
				<linearGradient id="椭圆_1025_拷贝_2_1_" gradientUnits="userSpaceOnUse" x1="3572.53" y1="17.0798" x2="3592.8098" y2="17.0798" gradientTransform="matrix(1 0 0 -1 -2053 868.8898)">
				<stop  offset="0" style="stop-color:#26FFFF"/>
				<stop  offset="1" style="stop-color:#1EFAFF"/>
			</linearGradient>
			<path id="椭圆_1025_拷贝_2" class="st6" d="M1529.7,837.3c5.6,0,10.1,6.5,10.1,14.5s-4.5,14.5-10.1,14.5
				c-5.6,0-10.1-6.5-10.1-14.5S1524.1,837.3,1529.7,837.3z"/>
				<linearGradient id="矩形_955_拷贝_7_1_" gradientUnits="userSpaceOnUse" x1="3760.676" y1="141.4448" x2="3833.3533" y2="141.4448" gradientTransform="matrix(1 0 0 -1 -2053 868.8898)">
				<stop  offset="0" style="stop-color:#FFFFFF;stop-opacity:0.412"/>
				<stop  offset="1" style="stop-color:#06D5F9"/>
			</linearGradient>
			<path id="矩形_955_拷贝_7" class="st7" d="M1779.7,779.5l-71.7-29.4c-0.4-26.5-0.4-64-0.3-74.7l72.4,26
				C1780.8,732,1779.8,745.1,1779.7,779.5z"/>

				<linearGradient id="矩形_955_拷贝_11_1_" gradientUnits="userSpaceOnUse" x1="3494.3867" y1="63.3697" x2="3566.8162" y2="63.3697" gradientTransform="matrix(1 0 0 -1 -2053 868.8898)">
				<stop  offset="0" style="stop-color:#06D5F9"/>
				<stop  offset="1" style="stop-color:#FFFFFF;stop-opacity:0.412"/>
			</linearGradient>
			<path id="矩形_955_拷贝_11" class="st8" d="M1442,857.6l71.5-29.4c0.4-26.5,0.4-64,0.3-74.7l-72.1,26
				C1440.9,810.1,1441.9,823.2,1442,857.6z"/>

				<linearGradient id="矩形_955_拷贝_5-2_1_" gradientUnits="userSpaceOnUse" x1="3563.8198" y1="79.249" x2="3766.4026" y2="79.249" gradientTransform="matrix(1 0 0 -1 -2053 868.8898)">
				<stop  offset="0" style="stop-color:#59BFFF"/>
				<stop  offset="1" style="stop-color:#59BFFF"/>
			</linearGradient>
			<path id="矩形_955_拷贝_5-2" class="st9" d="M1618.5,751.6l92.3,35.6c3.5,1.4,3.5,3.6,0,4.9l-92.3,35.6
				c-4.1,1.4-8.6,1.4-12.7,0l-92.3-35.6c-3.5-1.4-3.5-3.5,0-4.9l92.3-35.6C1609.9,750.2,1614.3,750.2,1618.5,751.6z"/>
			<path id="形状_1031" class="st10" d="M1534,767.9l-20.3,20.2l98.4,40.5l101.3-40.5l-23.2-20.2H1534z"/>

				<linearGradient id="矩形_955_拷贝_12_1_" gradientUnits="userSpaceOnUse" x1="3587.02" y1="106.7523" x2="3743.3501" y2="106.7523" gradientTransform="matrix(1 0 0 -1 -2053 868.8898)">
				<stop  offset="0" style="stop-color:#1673FF"/>
				<stop  offset="1" style="stop-color:#1CA8FF"/>
			</linearGradient>
			<path id="矩形_955_拷贝_12" class="st11" d="M1617,725.6l73.3,23.2c0,7.1-0.4,14.8-0.4,18.1l-73,31.7c-3.1,1.4-6.6,1.4-9.8,0
				l-72.9-31.7c0-3.4-0.3-8.9-0.3-15.8l73.3-25.5C1610.4,724.3,1613.9,724.3,1617,725.6z"/>

				<linearGradient id="矩形_955_拷贝_12-2_1_" gradientUnits="userSpaceOnUse" x1="3586.99" y1="118.8921" x2="3743.27" y2="118.8921" gradientTransform="matrix(1 0 0 -1 -2053 868.8898)">
				<stop  offset="0" style="stop-color:#0595FF"/>
				<stop  offset="1" style="stop-color:#07BBFF"/>
			</linearGradient>
			<path id="矩形_955_拷贝_12-2" class="st12" d="M1617,719.6l71.2,28.4c2.7,1.1,2.7,2.8,0,3.9l-71.2,28.4
				c-3.2,1.1-6.6,1.1-9.8,0L1536,752c-2.7-1.1-2.7-2.8,0-3.9l71.2-28.4C1610.4,718.5,1613.9,718.5,1617,719.6z"/>

				<linearGradient id="形状_970_拷贝_5_1_" gradientUnits="userSpaceOnUse" x1="3621.76" y1="188.9093" x2="3711.5" y2="188.9093" gradientTransform="matrix(1 0 0 -1 -2053 868.8898)">
				<stop  offset="0" style="stop-color:#00E8FF"/>
				<stop  offset="1" style="stop-color:#1CFEF7"/>
			</linearGradient>
			<path id="形状_970_拷贝_5" class="st13" d="M1568.8,682.9l34.1-10.3l55.7,3.4l-31.8,11.5L1568.8,682.9z"/>

				<linearGradient id="形状_971_拷贝_3_1_" gradientUnits="userSpaceOnUse" x1="3622.8899" y1="149.2768" x2="3679.7" y2="149.2768" gradientTransform="matrix(1 0 0 -1 -2053 868.8898)">
				<stop  offset="0" style="stop-color:#0CC7F5"/>
				<stop  offset="1" style="stop-color:#00E7FF"/>
			</linearGradient>
			<path id="形状_971_拷贝_3" class="st14" d="M1613.1,756.4l13.6-68.9l-56.8-4.6L1613.1,756.4z"/>

				<linearGradient id="形状_972_拷贝_3_1_" gradientUnits="userSpaceOnUse" x1="3666.0601" y1="153.2963" x2="3711.5" y2="153.2963" gradientTransform="matrix(1 0 0 -1 -2053 868.8898)">
				<stop  offset="0" style="stop-color:#0CC7F5"/>
				<stop  offset="1" style="stop-color:#00E7FF"/>
			</linearGradient>
			<path id="形状_972_拷贝_3" class="st15" d="M1658.5,676l-45.4,79.3l12.5-67.8L1658.5,676z"/>

				<linearGradient id="形状_970_拷贝_7_1_" gradientUnits="userSpaceOnUse" x1="3610.1799" y1="156.9868" x2="3630.4399" y2="156.9868" gradientTransform="matrix(1 0 0 -1 -2053 868.8898)">
				<stop  offset="0" style="stop-color:#00E8FF"/>
				<stop  offset="1" style="stop-color:#1CFEF7"/>
			</linearGradient>
			<path id="形状_970_拷贝_7" class="st16" d="M1557.2,712.6l7.7-2.5l12.6,0.8l-7.2,2.8L1557.2,712.6z"/>

				<linearGradient id="形状_971_拷贝_5_1_" gradientUnits="userSpaceOnUse" x1="3610.4299" y1="147.4133" x2="3623.24" y2="147.4133" gradientTransform="matrix(1 0 0 -1 -2053 868.8898)">
				<stop  offset="0" style="stop-color:#0CC7F5"/>
				<stop  offset="1" style="stop-color:#00E7FF"/>
			</linearGradient>
			<path id="形状_971_拷贝_5" class="st17" d="M1567.2,730.4l3.1-16.6l-12.8-1.1L1567.2,730.4z"/>

				<linearGradient id="形状_972_拷贝_5_1_" gradientUnits="userSpaceOnUse" x1="3620.1799" y1="148.3832" x2="3630.4399" y2="148.3832" gradientTransform="matrix(1 0 0 -1 -2053 868.8898)">
				<stop  offset="0" style="stop-color:#0CC7F5"/>
				<stop  offset="1" style="stop-color:#00E7FF"/>
			</linearGradient>
			<path id="形状_972_拷贝_5" class="st18" d="M1577.4,710.9l-10.3,19.1l2.8-16.4L1577.4,710.9z"/>

				<linearGradient id="形状_970_拷贝_9_1_" gradientUnits="userSpaceOnUse" x1="3688.3401" y1="223.4983" x2="3708.6101" y2="223.4983" gradientTransform="matrix(1 0 0 -1 -2053 868.8898)">
				<stop  offset="0" style="stop-color:#00E8FF"/>
				<stop  offset="1" style="stop-color:#1CFEF7"/>
			</linearGradient>
			<path id="形状_970_拷贝_9" class="st19" d="M1635.3,646.1l7.7-2.5l12.6,0.8l-7.2,2.8L1635.3,646.1z"/>

				<linearGradient id="形状_971_拷贝_7_1_" gradientUnits="userSpaceOnUse" x1="3688.6001" y1="213.9262" x2="3701.45" y2="213.9262" gradientTransform="matrix(1 0 0 -1 -2053 868.8898)">
				<stop  offset="0" style="stop-color:#0CC7F5"/>
				<stop  offset="1" style="stop-color:#00E7FF"/>
			</linearGradient>
			<path id="形状_971_拷贝_7" class="st20" d="M1645.4,663.8l3.1-16.6l-12.8-1.1L1645.4,663.8z"/>

				<linearGradient id="形状_972_拷贝_7_1_" gradientUnits="userSpaceOnUse" x1="3698.3501" y1="214.8978" x2="3708.6101" y2="214.8978" gradientTransform="matrix(1 0 0 -1 -2053 868.8898)">
				<stop  offset="0" style="stop-color:#0CC7F5"/>
				<stop  offset="1" style="stop-color:#00E7FF"/>
			</linearGradient>
			<path id="形状_972_拷贝_7" class="st21" d="M1655.6,644.4l-10.3,19.1l2.8-16.4L1655.6,644.4z"/>

				<linearGradient id="形状_970_拷贝_8_1_" gradientUnits="userSpaceOnUse" x1="3659.3899" y1="260.0583" x2="3691.24" y2="260.0583" gradientTransform="matrix(1 0 0 -1 -2053 868.8898)">
				<stop  offset="0" style="stop-color:#00E8FF"/>
				<stop  offset="1" style="stop-color:#1CFEF7"/>
			</linearGradient>
			<path id="形状_970_拷贝_8" class="st22" d="M1606.4,609.9l12.1-3.9l19.8,1.3l-11.3,4.4L1606.4,609.9z"/>

				<linearGradient id="形状_971_拷贝_6_1_" gradientUnits="userSpaceOnUse" x1="3659.78" y1="245.0243" x2="3679.9299" y2="245.0243" gradientTransform="matrix(1 0 0 -1 -2053 868.8898)">
				<stop  offset="0" style="stop-color:#0CC7F5"/>
				<stop  offset="1" style="stop-color:#00E7FF"/>
			</linearGradient>
			<path id="形状_971_拷贝_6" class="st23" d="M1622.1,637.8l4.8-26.1l-20.1-1.7L1622.1,637.8z"/>

				<linearGradient id="形状_972_拷贝_6_1_" gradientUnits="userSpaceOnUse" x1="3675.1101" y1="246.5497" x2="3691.24" y2="246.5497" gradientTransform="matrix(1 0 0 -1 -2053 868.8898)">
				<stop  offset="0" style="stop-color:#0CC7F5"/>
				<stop  offset="1" style="stop-color:#00E7FF"/>
			</linearGradient>
			<path id="形状_972_拷贝_6" class="st24" d="M1638.2,607.3l-16.1,30.1l4.4-25.7L1638.2,607.3z"/>
		</g>
		<g id="组_40_拷贝" class="st25">
			<path id="矩形_955_拷贝" class="st1" d="M318.7,345.1l150,46.1c5.6,2.8,3.6,35.1-2.1,37.9l-147.9,73.8
				c-5.6,2.8-14.8,2.8-20.4,0l-147.9-73.8c-5.6-2.8-7.6-35.1-2-37.9l149.9-46.1C303.9,342.3,313.1,342.3,318.7,345.1z"/>
			<path id="矩形_955" class="st2" d="M318.7,314.4l147.9,73.8c5.6,2.8,5.6,7.4,0,10.2l-147.9,73.8c-5.6,2.8-14.8,2.8-20.4,0
				l-147.9-73.8c-5.6-2.8-5.6-7.4,0-10.2l147.9-73.8C303.9,311.6,313.1,311.6,318.7,314.4z"/>

				<linearGradient id="矩形_977_拷贝_1_" gradientUnits="userSpaceOnUse" x1="2362.6147" y1="613.4617" x2="2362.6147" y2="644.1097" gradientTransform="matrix(1 0 0 -1 -2053 868.8898)">
				<stop  offset="0" style="stop-color:#0BCAF6"/>
				<stop  offset="1" style="stop-color:#FFFFFF"/>
			</linearGradient>
			<path id="矩形_977_拷贝" class="st26" d="M322.7,243.2l-13.1,12.2l-13.1-12.2h6.5v-18.5h13.7v18.5H322.7L322.7,243.2z"/>

				<linearGradient id="矩形_955_拷贝_8_1_" gradientUnits="userSpaceOnUse" x1="2297.2273" y1="599.5504" x2="2340.8198" y2="599.5504" gradientTransform="matrix(1 0 0 -1 -2053 868.8898)">
				<stop  offset="0" style="stop-color:#0CC7F5"/>
				<stop  offset="1" style="stop-color:#00E7FF"/>
			</linearGradient>
			<path id="矩形_955_拷贝_8" class="st27" d="M267.4,250.7l20.4,6.3c-0.1,12.1-0.1,13.1-0.1,22.4l-20.3,8.6
				c-0.9,0.4-1.9,0.4-2.7,0l-20.3-8.6c-0.1-7.7-0.1-18.7-0.1-21.8l20.4-6.9C265.5,250.3,266.5,250.3,267.4,250.7z"/>

				<linearGradient id="矩形_955_拷贝_8-2_1_" gradientUnits="userSpaceOnUse" x1="2297.2297" y1="611.5876" x2="2340.8" y2="611.5876" gradientTransform="matrix(1 0 0 -1 -2053 868.8898)">
				<stop  offset="0" style="stop-color:#00E8FF"/>
				<stop  offset="1" style="stop-color:#1CFEF7"/>
			</linearGradient>
			<path id="矩形_955_拷贝_8-2" class="st28" d="M267.4,249.1l19.8,7.7c0.8,0.3,0.8,0.8,0,1.1l-19.8,7.7c-0.9,0.3-1.9,0.3-2.7,0
				l-19.9-7.7c-0.8-0.3-0.8-0.8,0-1.1l19.9-7.7C265.5,248.8,266.5,248.8,267.4,249.1z"/>

				<linearGradient id="矩形_955_拷贝_9_1_" gradientUnits="userSpaceOnUse" x1="2340.8093" y1="667.4158" x2="2384.3999" y2="667.4158" gradientTransform="matrix(1 0 0 -1 -2053 868.8898)">
				<stop  offset="0" style="stop-color:#0CC7F5"/>
				<stop  offset="1" style="stop-color:#00E7FF"/>
			</linearGradient>
			<path id="矩形_955_拷贝_9" class="st29" d="M311,182.9l20.4,6.3c-0.1,12.1-0.1,13.1-0.1,22.4l-20.3,8.6
				c-0.9,0.4-1.9,0.4-2.7,0l-20.3-8.6c-0.1-7.7-0.1-18.7-0.1-21.8l20.4-6.9C309.1,182.5,310.1,182.5,311,182.9z"/>

				<linearGradient id="矩形_955_拷贝_9-2_1_" gradientUnits="userSpaceOnUse" x1="2340.8174" y1="679.4535" x2="2384.3826" y2="679.4535" gradientTransform="matrix(1 0 0 -1 -2053 868.8898)">
				<stop  offset="0" style="stop-color:#00E8FF"/>
				<stop  offset="1" style="stop-color:#1CFEF7"/>
			</linearGradient>
			<path id="矩形_955_拷贝_9-2" class="st30" d="M311,181.2l19.9,7.7c0.8,0.3,0.8,0.8,0,1.1l-19.9,7.7c-0.9,0.3-1.9,0.3-2.7,0
				l-19.9-7.7c-0.8-0.3-0.8-0.8,0-1.1l19.9-7.7C309.1,180.9,310.1,180.9,311,181.2z"/>

				<linearGradient id="矩形_955_拷贝_10_1_" gradientUnits="userSpaceOnUse" x1="2386.5693" y1="617.0658" x2="2430.1699" y2="617.0658" gradientTransform="matrix(1 0 0 -1 -2053 868.8898)">
				<stop  offset="0" style="stop-color:#0CC7F5"/>
				<stop  offset="1" style="stop-color:#00E7FF"/>
			</linearGradient>
			<path id="矩形_955_拷贝_10" class="st31" d="M356.7,233.2l20.4,6.3c-0.1,12.1-0.1,13.1-0.1,22.4l-20.3,8.6
				c-0.9,0.4-1.9,0.4-2.7,0l-20.3-8.6c-0.1-7.7-0.1-18.7-0.1-21.8l20.4-6.9C354.9,232.8,355.9,232.8,356.7,233.2z"/>

				<linearGradient id="矩形_955_拷贝_10-2_1_" gradientUnits="userSpaceOnUse" x1="2386.5774" y1="629.1013" x2="2430.1426" y2="629.1013" gradientTransform="matrix(1 0 0 -1 -2053 868.8898)">
				<stop  offset="0" style="stop-color:#00E8FF"/>
				<stop  offset="1" style="stop-color:#1CFEF7"/>
			</linearGradient>
			<path id="矩形_955_拷贝_10-2" class="st32" d="M356.7,231.6l19.9,7.7c0.8,0.3,0.8,0.8,0,1.1l-19.9,7.7
				c-0.9,0.3-1.9,0.3-2.7,0l-19.9-7.7c-0.8-0.3-0.8-0.8,0-1.1l19.9-7.7C354.9,231.3,355.8,231.3,356.7,231.6z"/>
			<path id="矩形_957" class="st33" d="M238.6,366.2c0,0,7.5-2,13.2-3.5c33.1,0,122.2,3.5,122.2,3.5l14,27.2
				c-24.5,14.5-46.9,28.1-76.3,46c-2.6,0-4.4,0-6.5,0c-33.3-17-44.4-24.2-80.7-43.8L238.6,366.2z"/>

				<linearGradient id="形状_987_1_" gradientUnits="userSpaceOnUse" x1="2360.4351" y1="433.9458" x2="2360.4351" y2="534.6498" gradientTransform="matrix(1 0 0 -1 -2053 868.8898)">
				<stop  offset="0" style="stop-color:#1E33E2"/>
				<stop  offset="1" style="stop-color:#20A3FF"/>
			</linearGradient>
			<path id="形状_987" class="st34" d="M388.1,334.2v56.9l-80.6,43.8l-80.6-41.6v-59.1H388.1z"/>

				<linearGradient id="矩形_957_拷贝_1_" gradientUnits="userSpaceOnUse" x1="2279.3" y1="527.5842" x2="2441.0601" y2="527.5842" gradientTransform="matrix(1 0 0 -1 -2053 868.8898)">
				<stop  offset="0" style="stop-color:#1CA1FF"/>
				<stop  offset="1" style="stop-color:#1DF7FF"/>
			</linearGradient>
			<path id="矩形_957_拷贝" class="st35" d="M241.9,305.8h130.6l15.6,29.3c-24.1,13.1-54.8,29.7-81.9,41.7
				c-32.1-15.1-44.9-22.7-79.9-41.7L241.9,305.8z"/>
			<path id="矩形_957_拷贝_2" class="st36" d="M249.4,292.6h116.1l13.9,26.2c-21.4,11.7-48.7,26.5-72.8,37.3
				c-28.5-13.5-39.9-20.2-71-37.3L249.4,292.6z"/>

				<linearGradient id="矩形_977_拷贝_2_1_" gradientUnits="userSpaceOnUse" x1="2407.2847" y1="558.7278" x2="2407.2847" y2="595.9468" gradientTransform="matrix(1 0 0 -1 -2053 868.8898)">
				<stop  offset="0" style="stop-color:#0BCAF6"/>
				<stop  offset="1" style="stop-color:#FFFFFF"/>
			</linearGradient>
			<path id="矩形_977_拷贝_2" class="st37" d="M370.6,295.4l-16.3,14.8l-16.4-14.8h8.1v-22.4h17.2v22.4H370.6L370.6,295.4z"/>

				<linearGradient id="矩形_977_拷贝_5_1_" gradientUnits="userSpaceOnUse" x1="2315.7651" y1="545.5898" x2="2315.7651" y2="582.8118" gradientTransform="matrix(1 0 0 -1 -2053 868.8898)">
				<stop  offset="0" style="stop-color:#0BCAF6"/>
				<stop  offset="1" style="stop-color:#FFFFFF"/>
			</linearGradient>
			<path id="矩形_977_拷贝_5" class="st38" d="M279.1,308.5l-16.4,14.8l-16.3-14.8h8.1v-22.4h17.2v22.4H279.1L279.1,308.5z"/>
		</g>

			<linearGradient id="形状_823_拷贝_2_1_" gradientUnits="userSpaceOnUse" x1="2463.4648" y1="-311.5103" x2="2463.4648" y2="-34.1102" gradientTransform="matrix(1 0 0 -1 -2053 868.8898)">
			<stop  offset="0" style="stop-color:#04D3DB"/>
			<stop  offset="1" style="stop-color:#1E5EED"/>
		</linearGradient>
		<path id="形状_823_拷贝_2" class="st39" d="M399.6,903l-238.5,93.8l256.8,183.6l241.9-108.8L399.6,903z"/>

			<linearGradient id="形状_824_拷贝_2_1_" gradientUnits="userSpaceOnUse" x1="2341.51" y1="-384.1001" x2="2341.51" y2="-127.9102" gradientTransform="matrix(1 0 0 -1 -2053 868.8898)">
			<stop  offset="0" style="stop-color:#04D3DB"/>
			<stop  offset="1" style="stop-color:#1E5EED"/>
		</linearGradient>
		<path id="形状_824_拷贝_2" class="st40" d="M159,1059.7l2.1-62.9l256.8,183.6l0.1,72.6L159,1059.7z"/>

			<linearGradient id="形状_825_拷贝_2_1_" gradientUnits="userSpaceOnUse" x1="2591.7251" y1="-381.4203" x2="2591.7251" y2="-202.7102" gradientTransform="matrix(1 0 0 -1 -2053 868.8898)">
			<stop  offset="0" style="stop-color:#04D3DB"/>
			<stop  offset="1" style="stop-color:#1E5EED"/>
		</linearGradient>
		<path id="形状_825_拷贝_2" class="st41" d="M659.8,1071.6l-242.4,107.7l-2.9,71L663,1132L659.8,1071.6z"/>

			<linearGradient id="形状_820_拷贝_1_" gradientUnits="userSpaceOnUse" x1="3758.52" y1="558.8898" x2="3758.52" y2="703.9078" gradientTransform="matrix(1 0 0 -1 -2053 868.8898)">
			<stop  offset="0" style="stop-color:#04D3DB"/>
			<stop  offset="1" style="stop-color:#1E5EED"/>
		</linearGradient>
		<path id="形状_820_拷贝" class="st42" d="M1594,231.8l130.7-66.8l92.2,74l-128,71L1594,231.8z"/>

			<linearGradient id="形状_821_拷贝_1_" gradientUnits="userSpaceOnUse" x1="3694.5" y1="539.8898" x2="3694.5" y2="637.1277" gradientTransform="matrix(1 0 0 -1 -2053 868.8898)">
			<stop  offset="0" style="stop-color:#04D3DB"/>
			<stop  offset="1" style="stop-color:#1E5EED"/>
		</linearGradient>
		<path id="形状_821_拷贝" class="st43" d="M1594,249v-17.2l95,77.2v20L1594,249z"/>

			<linearGradient id="形状_822_拷贝_1_" gradientUnits="userSpaceOnUse" x1="3805.6401" y1="539.8998" x2="3805.6401" y2="629.8898" gradientTransform="matrix(1 0 0 -1 -2053 868.8898)">
			<stop  offset="0" style="stop-color:#04D3DB"/>
			<stop  offset="1" style="stop-color:#1E5EED"/>
		</linearGradient>
		<path id="形状_822_拷贝" class="st44" d="M1817,239l-128,70l-0.7,20l127.1-75.4L1817,239z"/>
	</g>
</g>
</svg>
