<?xml version="1.0" encoding="utf-8"?>
<!-- Generator: Adobe Illustrator 24.1.0, SVG Export Plug-In . SVG Version: 6.00 Build 0)  -->
<svg version="1.1" id="图层_1" xmlns="http://www.w3.org/2000/svg" xmlns:xlink="http://www.w3.org/1999/xlink" x="0px" y="0px"
	 viewBox="0 0 1920 1080" style="enable-background:new 0 0 1920 1080;" xml:space="preserve">
<style type="text/css">
	.st0{fill:#F5FAFF;}
	.st1{fill:url(#矩形_364_1_);}
	.st2{fill:url(#路径_27_1_);}
	.st3{fill:url(#路径_28_1_);}
	.st4{fill:#C0D9FD;}
</style>
<g id="组_1259" transform="translate(0 72)">
	<rect id="背景" y="-72" class="st0" width="1920" height="1080"/>

		<linearGradient id="矩形_364_1_" gradientUnits="userSpaceOnUse" x1="319.9283" y1="944.2112" x2="320.7383" y2="942.9073" gradientTransform="matrix(1920 0 0 -1080 -614080 1019512)">
		<stop  offset="0" style="stop-color:#DDEBFF"/>
		<stop  offset="1" style="stop-color:#FFFFFF"/>
	</linearGradient>
	<rect id="矩形_364" y="-72" class="st1" width="1920" height="1080"/>

		<linearGradient id="路径_27_1_" gradientUnits="userSpaceOnUse" x1="319.9446" y1="943.1674" x2="320.4856" y2="943.7404" gradientTransform="matrix(1726.217 0 0 -1078.9524 -552069.4375 1018524.125)">
		<stop  offset="0" style="stop-color:#DDEBFF"/>
		<stop  offset="1" style="stop-color:#FFFFFF"/>
	</linearGradient>
	<path id="路径_27" class="st2" d="M1726.2,1008H0V-70.9c0,0,239.8-9.5,379.3,226.9c83.7,141.8,9.5,431.9,106.1,542.8
		C723.3,972.2,1448.2,789.2,1726.2,1008z"/>

		<linearGradient id="路径_28_1_" gradientUnits="userSpaceOnUse" x1="320.0617" y1="943.7563" x2="320.7408" y2="943.0493" gradientTransform="matrix(1284.3831 0 0 -1076.9501 -410047.0625 1016635.9375)">
		<stop  offset="0" style="stop-color:#DDEBFF"/>
		<stop  offset="1" style="stop-color:#FFFFFF"/>
	</linearGradient>
	<path id="路径_28" class="st3" d="M1919.9,1008H635.5c0,0,577.2-57.8,685.7-323.5c82.2-201.1-296.7-303.3-133.2-552.6
		C1309.7-53.8,1919.9-69,1919.9-69L1919.9,1008z"/>
	<g id="组_642" transform="translate(-1250 -60)">
		<g id="组_624">
			<g id="组_611">
				<g id="组_608">
					<path id="路径_29" class="st4" d="M1304.5-5.2c-0.1-0.2-0.2-0.4-0.3-0.5c-0.1-0.2-0.2-0.3-0.4-0.4c-1.2-1.1-3-1.1-4.2,0
						c-0.1,0.1-0.3,0.3-0.4,0.4c-0.1,0.2-0.2,0.3-0.3,0.5c-0.1,0.2-0.1,0.4-0.2,0.6c-0.3,1.6,0.7,3.2,2.3,3.5
						c1.6,0.3,3.2-0.7,3.5-2.3c0.1-0.4,0.1-0.8,0-1.2C1304.6-4.8,1304.6-5,1304.5-5.2z"/>
				</g>
				<g id="组_609">
					<circle id="椭圆_73" class="st4" cx="1375.4" cy="-4" r="3"/>
					<circle id="椭圆_74" class="st4" cx="1400" cy="-4" r="3"/>
					<circle id="椭圆_75" class="st4" cx="1350.9" cy="-4" r="3"/>
					<circle id="椭圆_76" class="st4" cx="1326.3" cy="-4" r="3"/>
					<circle id="椭圆_77" class="st4" cx="1424.6" cy="-4" r="3"/>
					<circle id="椭圆_78" class="st4" cx="1449.2" cy="-4" r="3"/>
					<circle id="椭圆_79" class="st4" cx="1522.9" cy="-4" r="3"/>
					<circle id="椭圆_80" class="st4" cx="1547.5" cy="-4" r="3"/>
					<circle id="椭圆_81" class="st4" cx="1498.3" cy="-4" r="3"/>
					<circle id="椭圆_82" class="st4" cx="1473.7" cy="-4" r="3"/>
				</g>
				<g id="组_610">
					<path id="路径_30" class="st4" d="M1574.8-5.2c-0.1-0.2-0.2-0.4-0.3-0.5c-0.1-0.2-0.2-0.3-0.4-0.4c-1.2-1.1-3.1-1.1-4.2,0
						c-1.2,1.2-1.2,3.1,0,4.2c1.2,1.2,3.1,1.2,4.2,0l0,0c0.6-0.6,0.9-1.3,0.9-2.1c0-0.2,0-0.4-0.1-0.6
						C1574.9-4.8,1574.9-5,1574.8-5.2z"/>
				</g>
			</g>
			<g id="组_615">
				<g id="组_612">
					<path id="路径_31" class="st4" d="M1304.5,15.8c-0.1-0.2-0.2-0.4-0.3-0.5c-0.1-0.2-0.2-0.3-0.4-0.4c-1.2-1.1-3-1.1-4.2,0
						c-1.2,1.2-1.2,3.1,0,4.2c0,0,0,0,0,0c0.1,0.1,0.3,0.3,0.5,0.4c0.2,0.1,0.3,0.2,0.5,0.3c0.2,0.1,0.4,0.1,0.6,0.2
						c0.2,0,0.4,0.1,0.6,0.1c1.7,0,3-1.3,3-3c0-0.2,0-0.4-0.1-0.6C1304.6,16.2,1304.6,16,1304.5,15.8z"/>
				</g>
				<g id="组_613">
					<circle id="椭圆_83" class="st4" cx="1375.4" cy="17" r="3"/>
					<circle id="椭圆_84" class="st4" cx="1400" cy="17" r="3"/>
					<circle id="椭圆_85" class="st4" cx="1350.9" cy="17" r="3"/>
					<circle id="椭圆_86" class="st4" cx="1326.3" cy="17" r="3"/>
					<circle id="椭圆_87" class="st4" cx="1498.3" cy="17" r="3"/>
					<circle id="椭圆_88" class="st4" cx="1547.5" cy="17" r="3"/>
					<circle id="椭圆_89" class="st4" cx="1522.9" cy="17" r="3"/>
					<circle id="椭圆_90" class="st4" cx="1424.6" cy="17" r="3"/>
					<circle id="椭圆_91" class="st4" cx="1449.2" cy="17" r="3"/>
					<circle id="椭圆_92" class="st4" cx="1473.7" cy="17" r="3"/>
				</g>
				<g id="组_614">
					<path id="路径_32" class="st4" d="M1574.8,15.8c-0.1-0.2-0.2-0.4-0.3-0.5c-0.1-0.2-0.2-0.3-0.4-0.4c-1.2-1.1-3.1-1.1-4.2,0
						c-0.1,0.1-0.3,0.3-0.4,0.4c-0.1,0.2-0.2,0.3-0.3,0.5c-0.1,0.2-0.1,0.4-0.2,0.6c0,0.2-0.1,0.4-0.1,0.6c0,1.7,1.4,3,3,3
						c0.8,0,1.6-0.3,2.1-0.9c0.6-0.6,0.9-1.3,0.9-2.1c0-0.2,0-0.4-0.1-0.6C1574.9,16.2,1574.9,16,1574.8,15.8z"/>
				</g>
			</g>
			<g id="组_619">
				<g id="组_616">
					<path id="路径_33" class="st4" d="M1304.5,36.8c-0.1-0.2-0.2-0.4-0.3-0.5c-0.1-0.2-0.2-0.3-0.4-0.4c-0.7-0.7-1.7-1-2.7-0.8
						c-0.2,0-0.4,0.1-0.6,0.2c-0.2,0.1-0.4,0.2-0.5,0.3c-0.2,0.1-0.3,0.2-0.5,0.4c-0.1,0.1-0.3,0.3-0.4,0.4
						c-0.1,0.2-0.2,0.3-0.3,0.5c-0.1,0.2-0.1,0.4-0.2,0.6c-0.2,1,0.1,2,0.8,2.7c0.1,0.1,0.3,0.3,0.5,0.4c0.2,0.1,0.3,0.2,0.5,0.3
						c0.4,0.1,0.8,0.2,1.2,0.2c1.7,0,3-1.3,3-3c0-0.2,0-0.4-0.1-0.6C1304.6,37.2,1304.6,37,1304.5,36.8z"/>
				</g>
				<g id="组_617">
					<circle id="椭圆_93" class="st4" cx="1400" cy="38" r="3"/>
					<circle id="椭圆_94" class="st4" cx="1326.3" cy="38" r="3"/>
					<circle id="椭圆_95" class="st4" cx="1350.9" cy="38" r="3"/>
					<circle id="椭圆_96" class="st4" cx="1424.6" cy="38" r="3"/>
					<circle id="椭圆_97" class="st4" cx="1375.4" cy="38" r="3"/>
					<circle id="椭圆_98" class="st4" cx="1522.9" cy="38" r="3"/>
					<circle id="椭圆_99" class="st4" cx="1449.2" cy="38" r="3"/>
					<circle id="椭圆_100" class="st4" cx="1547.5" cy="38" r="3"/>
					<circle id="椭圆_101" class="st4" cx="1473.7" cy="38" r="3"/>
					<circle id="椭圆_102" class="st4" cx="1498.3" cy="38" r="3"/>
				</g>
				<g id="组_618">
					<path id="路径_34" class="st4" d="M1569.9,35.9c-0.6,0.6-0.9,1.3-0.9,2.1c0,0.2,0,0.4,0.1,0.6c0,0.2,0.1,0.4,0.2,0.6
						c0.1,0.2,0.2,0.4,0.3,0.5c0.1,0.2,0.2,0.3,0.4,0.4c1.2,1.2,3.1,1.2,4.2,0c0.1-0.1,0.3-0.3,0.4-0.4c0.1-0.2,0.2-0.3,0.3-0.5
						c0.1-0.2,0.1-0.4,0.2-0.6c0-0.2,0-0.4,0.1-0.6c0-0.8-0.3-1.6-0.9-2.1C1573,34.8,1571.1,34.8,1569.9,35.9z"/>
				</g>
			</g>
			<g id="组_623">
				<g id="组_620">
					<path id="路径_35" class="st4" d="M1299.6,55.6c-1.2,1.2-1.2,3.1,0,4.2c0,0,0,0,0,0c0.1,0.1,0.3,0.3,0.5,0.4
						c0.2,0.1,0.3,0.2,0.5,0.3c0.2,0.1,0.4,0.1,0.6,0.2c0.2,0,0.4,0.1,0.6,0.1c1.7,0,3-1.3,3-3c0-0.8-0.3-1.6-0.9-2.1
						C1302.6,54.4,1300.8,54.4,1299.6,55.6z"/>
				</g>
				<g id="组_621">
					<circle id="椭圆_103" class="st4" cx="1375.4" cy="57.7" r="3"/>
					<circle id="椭圆_104" class="st4" cx="1350.9" cy="57.7" r="3"/>
					<circle id="椭圆_105" class="st4" cx="1326.3" cy="57.7" r="3"/>
					<circle id="椭圆_106" class="st4" cx="1400" cy="57.7" r="3"/>
					<circle id="椭圆_107" class="st4" cx="1498.3" cy="57.7" r="3"/>
					<circle id="椭圆_108" class="st4" cx="1522.9" cy="57.7" r="3"/>
					<circle id="椭圆_109" class="st4" cx="1547.5" cy="57.7" r="3"/>
					<circle id="椭圆_110" class="st4" cx="1473.7" cy="57.7" r="3"/>
					<circle id="椭圆_111" class="st4" cx="1449.2" cy="57.7" r="3"/>
					<circle id="椭圆_112" class="st4" cx="1424.6" cy="57.7" r="3"/>
				</g>
				<g id="组_622">
					<path id="路径_36" class="st4" d="M1574.8,56.5c-0.1-0.2-0.2-0.4-0.3-0.5c-0.1-0.2-0.2-0.3-0.4-0.5c-1.2-1.1-3.1-1.1-4.2,0
						c-1.2,1.2-1.2,3.1,0,4.2c1.2,1.2,3.1,1.2,4.2,0c0.6-0.6,0.9-1.3,0.9-2.1c0-0.2,0-0.4-0.1-0.6
						C1574.9,56.9,1574.9,56.7,1574.8,56.5z"/>
				</g>
			</g>
		</g>
	</g>
	<g id="组_624-2" transform="translate(288 940)">
		<g id="组_611-2">
			<g id="组_608-2">
				<path id="路径_29-2" class="st4" d="M1304.5-5.2c-0.1-0.2-0.2-0.4-0.3-0.5c-0.1-0.2-0.2-0.3-0.4-0.4c-1.2-1.1-3-1.1-4.2,0
					c-0.1,0.1-0.3,0.3-0.4,0.4c-0.1,0.2-0.2,0.3-0.3,0.5c-0.1,0.2-0.1,0.4-0.2,0.6c-0.3,1.6,0.7,3.2,2.3,3.5
					c1.6,0.3,3.2-0.7,3.5-2.3c0.1-0.4,0.1-0.8,0-1.2C1304.6-4.8,1304.6-5,1304.5-5.2z"/>
			</g>
			<g id="组_609-2">
				<circle id="椭圆_73-2" class="st4" cx="1375.4" cy="-4" r="3"/>
				<circle id="椭圆_74-2" class="st4" cx="1400" cy="-4" r="3"/>
				<circle id="椭圆_75-2" class="st4" cx="1350.9" cy="-4" r="3"/>
				<circle id="椭圆_76-2" class="st4" cx="1326.3" cy="-4" r="3"/>
				<circle id="椭圆_77-2" class="st4" cx="1424.6" cy="-4" r="3"/>
				<circle id="椭圆_78-2" class="st4" cx="1449.2" cy="-4" r="3"/>
				<circle id="椭圆_79-2" class="st4" cx="1522.9" cy="-4" r="3"/>
				<circle id="椭圆_80-2" class="st4" cx="1547.5" cy="-4" r="3"/>
				<circle id="椭圆_81-2" class="st4" cx="1498.3" cy="-4" r="3"/>
				<circle id="椭圆_82-2" class="st4" cx="1473.7" cy="-4" r="3"/>
			</g>
			<g id="组_610-2">
				<path id="路径_30-2" class="st4" d="M1574.8-5.2c-0.1-0.2-0.2-0.4-0.3-0.5c-0.1-0.2-0.2-0.3-0.4-0.4c-1.2-1.1-3.1-1.1-4.2,0
					c-1.2,1.2-1.2,3.1,0,4.2c1.2,1.2,3.1,1.2,4.2,0l0,0c0.6-0.6,0.9-1.3,0.9-2.1c0-0.2,0-0.4-0.1-0.6
					C1574.9-4.8,1574.9-5,1574.8-5.2z"/>
			</g>
		</g>
		<g id="组_615-2">
			<g id="组_612-2">
				<path id="路径_31-2" class="st4" d="M1304.5,15.8c-0.1-0.2-0.2-0.4-0.3-0.5c-0.1-0.2-0.2-0.3-0.4-0.4c-1.2-1.1-3-1.1-4.2,0
					c-1.2,1.2-1.2,3.1,0,4.2c0,0,0,0,0,0c0.1,0.1,0.3,0.3,0.5,0.4c0.2,0.1,0.3,0.2,0.5,0.3c0.2,0.1,0.4,0.1,0.6,0.2
					c0.2,0,0.4,0.1,0.6,0.1c1.7,0,3-1.3,3-3c0-0.2,0-0.4-0.1-0.6C1304.6,16.2,1304.6,16,1304.5,15.8z"/>
			</g>
			<g id="组_613-2">
				<circle id="椭圆_83-2" class="st4" cx="1375.4" cy="17" r="3"/>
				<circle id="椭圆_84-2" class="st4" cx="1400" cy="17" r="3"/>
				<circle id="椭圆_85-2" class="st4" cx="1350.9" cy="17" r="3"/>
				<circle id="椭圆_86-2" class="st4" cx="1326.3" cy="17" r="3"/>
				<circle id="椭圆_87-2" class="st4" cx="1498.3" cy="17" r="3"/>
				<circle id="椭圆_88-2" class="st4" cx="1547.5" cy="17" r="3"/>
				<circle id="椭圆_89-2" class="st4" cx="1522.9" cy="17" r="3"/>
				<circle id="椭圆_90-2" class="st4" cx="1424.6" cy="17" r="3"/>
				<circle id="椭圆_91-2" class="st4" cx="1449.2" cy="17" r="3"/>
				<circle id="椭圆_92-2" class="st4" cx="1473.7" cy="17" r="3"/>
			</g>
			<g id="组_614-2">
				<path id="路径_32-2" class="st4" d="M1574.8,15.8c-0.1-0.2-0.2-0.4-0.3-0.5c-0.1-0.2-0.2-0.3-0.4-0.4c-1.2-1.1-3.1-1.1-4.2,0
					c-0.1,0.1-0.3,0.3-0.4,0.4c-0.1,0.2-0.2,0.3-0.3,0.5c-0.1,0.2-0.1,0.4-0.2,0.6c0,0.2-0.1,0.4-0.1,0.6c0,1.7,1.4,3,3,3
					c0.8,0,1.6-0.3,2.1-0.9c0.6-0.6,0.9-1.3,0.9-2.1c0-0.2,0-0.4-0.1-0.6C1574.9,16.2,1574.9,16,1574.8,15.8z"/>
			</g>
		</g>
		<g id="组_619-2">
			<g id="组_616-2">
				<path id="路径_33-2" class="st4" d="M1304.5,36.8c-0.1-0.2-0.2-0.4-0.3-0.5c-0.1-0.2-0.2-0.3-0.4-0.4c-0.7-0.7-1.7-1-2.7-0.8
					c-0.2,0-0.4,0.1-0.6,0.2c-0.2,0.1-0.4,0.2-0.5,0.3c-0.2,0.1-0.3,0.2-0.5,0.4c-0.1,0.1-0.3,0.3-0.4,0.4c-0.1,0.2-0.2,0.3-0.3,0.5
					c-0.1,0.2-0.1,0.4-0.2,0.6c-0.2,1,0.1,2,0.8,2.7c0.1,0.1,0.3,0.3,0.5,0.4c0.2,0.1,0.3,0.2,0.5,0.3c0.4,0.1,0.8,0.2,1.2,0.2
					c1.7,0,3-1.3,3-3c0-0.2,0-0.4-0.1-0.6C1304.6,37.2,1304.6,37,1304.5,36.8z"/>
			</g>
			<g id="组_617-2">
				<circle id="椭圆_93-2" class="st4" cx="1400" cy="38" r="3"/>
				<circle id="椭圆_94-2" class="st4" cx="1326.3" cy="38" r="3"/>
				<circle id="椭圆_95-2" class="st4" cx="1350.9" cy="38" r="3"/>
				<circle id="椭圆_96-2" class="st4" cx="1424.6" cy="38" r="3"/>
				<circle id="椭圆_97-2" class="st4" cx="1375.4" cy="38" r="3"/>
				<circle id="椭圆_98-2" class="st4" cx="1522.9" cy="38" r="3"/>
				<circle id="椭圆_99-2" class="st4" cx="1449.2" cy="38" r="3"/>
				<circle id="椭圆_100-2" class="st4" cx="1547.5" cy="38" r="3"/>
				<circle id="椭圆_101-2" class="st4" cx="1473.7" cy="38" r="3"/>
				<circle id="椭圆_102-2" class="st4" cx="1498.3" cy="38" r="3"/>
			</g>
			<g id="组_618-2">
				<path id="路径_34-2" class="st4" d="M1569.9,35.9c-0.6,0.6-0.9,1.3-0.9,2.1c0,0.2,0,0.4,0.1,0.6c0,0.2,0.1,0.4,0.2,0.6
					c0.1,0.2,0.2,0.4,0.3,0.5c0.1,0.2,0.2,0.3,0.4,0.4c1.2,1.2,3.1,1.2,4.2,0c0.1-0.1,0.3-0.3,0.4-0.4c0.1-0.2,0.2-0.3,0.3-0.5
					c0.1-0.2,0.1-0.4,0.2-0.6c0-0.2,0-0.4,0.1-0.6c0-0.8-0.3-1.6-0.9-2.1C1573,34.8,1571.1,34.8,1569.9,35.9z"/>
			</g>
		</g>
		<g id="组_623-2">
			<g id="组_620-2">
				<path id="路径_35-2" class="st4" d="M1299.6,55.6c-1.2,1.2-1.2,3.1,0,4.2c0,0,0,0,0,0c0.1,0.1,0.3,0.3,0.5,0.4
					c0.2,0.1,0.3,0.2,0.5,0.3c0.2,0.1,0.4,0.1,0.6,0.2c0.2,0,0.4,0.1,0.6,0.1c1.7,0,3-1.3,3-3c0-0.8-0.3-1.6-0.9-2.1
					C1302.6,54.4,1300.8,54.4,1299.6,55.6z"/>
			</g>
			<g id="组_621-2">
				<circle id="椭圆_103-2" class="st4" cx="1375.4" cy="57.7" r="3"/>
				<circle id="椭圆_104-2" class="st4" cx="1350.9" cy="57.7" r="3"/>
				<circle id="椭圆_105-2" class="st4" cx="1326.3" cy="57.7" r="3"/>
				<circle id="椭圆_106-2" class="st4" cx="1400" cy="57.7" r="3"/>
				<circle id="椭圆_107-2" class="st4" cx="1498.3" cy="57.7" r="3"/>
				<circle id="椭圆_108-2" class="st4" cx="1522.9" cy="57.7" r="3"/>
				<circle id="椭圆_109-2" class="st4" cx="1547.5" cy="57.7" r="3"/>
				<circle id="椭圆_110-2" class="st4" cx="1473.7" cy="57.7" r="3"/>
				<circle id="椭圆_111-2" class="st4" cx="1449.2" cy="57.7" r="3"/>
				<circle id="椭圆_112-2" class="st4" cx="1424.6" cy="57.7" r="3"/>
			</g>
			<g id="组_622-2">
				<path id="路径_36-2" class="st4" d="M1574.8,56.5c-0.1-0.2-0.2-0.4-0.3-0.5c-0.1-0.2-0.2-0.3-0.4-0.5c-1.2-1.1-3.1-1.1-4.2,0
					c-1.2,1.2-1.2,3.1,0,4.2c1.2,1.2,3.1,1.2,4.2,0c0.6-0.6,0.9-1.3,0.9-2.1c0-0.2,0-0.4-0.1-0.6
					C1574.9,56.9,1574.9,56.7,1574.8,56.5z"/>
			</g>
		</g>
	</g>
</g>
</svg>
